<?xml version="1.0" encoding="UTF-8"?><svg id="Layer_2" xmlns="http://www.w3.org/2000/svg" viewBox="0 0 907.71 167.02"><g id="Layer_1-2"><path d="M1.11,154.06c0-8.16,5.83-12.92,12.74-12.92,5.91,0,9.29,3.52,9.29,6.72,0,1.64-.89,3.16-2.86,3.16-1.82,0-2.71-1.32-2.82-3.08-.15-2.6-1.45-5.32-4.83-5.32-3.83,0-6.13,3.56-6.09,9.16.04,7.84,4.68,12.08,9.66,12.08,2.08,0,4.2-.76,6.13-3.08l.85.76c-.97,1.92-4.01,5.48-9.62,5.48-6.5,0-12.45-4.72-12.45-12.96Z"/><path d="M82.44,154.3c0-8.08,5.76-13.16,12.37-13.16s12.04,4.76,12.04,12.64-5.76,13.24-12.37,13.24-12.04-4.76-12.04-12.72ZM95.52,165.26c2.82,0,5.83-2.52,5.83-9.44,0-7.48-3.42-12.92-7.58-12.92-2.82,0-5.83,2.52-5.83,9.36,0,7.56,3.42,13,7.58,13Z"/><path d="M168.08,162.94v-17.48c0-1.52-1.04-2.16-2.71-2.4v-1.28h6.17l13,16.76v-13.08c0-1.52-1.04-2.16-2.71-2.4v-1.28h7.32v1.28c-1.67.24-2.71.88-2.71,2.4v21.16h-1.86l-14.6-18.8v15.12c0,1.52,1.04,2.16,2.71,2.4v1.28h-7.32v-1.28c1.67-.24,2.71-.88,2.71-2.4Z"/><path d="M249.36,164.7c-1.08-2.84-1.19-6.4.52-6.4.45,0,.59.2.82.88,1.3,3.96,4.35,6.08,7.54,6.08,2.71,0,3.98-1.44,3.98-3.56,0-3.16-2.82-4.08-6.09-5.16-3.9-1.32-7.32-3.8-7.32-8.2s3.72-7.2,8.69-7.2c2.82,0,5.98.84,7.65,2,1.08,2.84,1.19,6.4-.52,6.4-.45,0-.59-.2-.82-.88-1.26-3.88-4.16-5.84-6.91-5.84s-3.75,1.92-3.75,3.68c0,2.72,2.12,3.92,5.24,4.96,3.72,1.24,8.58,3,8.58,8.36s-5.13,7.2-9.51,7.2c-3.34,0-6.43-1.16-8.1-2.32Z"/><path d="M333.59,162.9v-16.8c0-2.16-.37-2.52-2.71-2.52-2.64,0-3.46,1.04-4.53,4.24h-1.23l.67-5.48c.04-.44.3-.68.71-.64.48.04,1.37.08,2.23.08h14.79c.85,0,1.75-.04,2.23-.08.41-.04.67.2.71.64l.67,5.48h-1.23c-1.08-3.2-1.9-4.24-4.53-4.24-2.34,0-2.71.36-2.71,2.52v16.8c0,1.56.89,2.2,3.9,2.44v1.28h-12.86v-1.28c3.01-.24,3.9-.88,3.9-2.44Z"/><path d="M408.56,162.94v-17.48c0-1.52-.89-2.16-2.56-2.4v-1.28h12.11c5.54,0,9.07,2.4,9.07,6.76,0,3.12-1.9,5.56-5.76,6.16-.26.04-.26.4,0,.48,2.27.68,3.53,2,4.53,5.08.89,2.64,1.6,5.08,3.34,5.08v1.28h-2.01c-4.27,0-5.42-1.88-7.13-6.8-1.04-3-2.12-4.08-4.35-4.08-1.67,0-2.19.68-2.19,2.2v5c0,1.52.89,2.16,2.94,2.4v1.28h-10.55v-1.28c1.67-.24,2.56-.88,2.56-2.4ZM415.66,153.94h1.63c3.6,0,4.72-2.8,4.72-5.36s-1.11-5.16-4.27-5.16h-2.12c-1.49,0-2.01.68-2.01,2.24v6.04c0,1.56.52,2.24,2.04,2.24Z"/><path d="M488.88,156.06v-10.6c0-1.52-.89-2.16-2.56-2.4v-1.28h10.18v1.28c-1.67.24-2.56.88-2.56,2.4v10.04c0,6.28,2.34,8.92,5.91,8.92s6.21-2.4,6.21-8.68v-10.28c0-1.52-1.04-2.16-2.71-2.4v-1.28h7.51v1.28c-1.67.24-2.71.88-2.71,2.4v11c0,6.52-3.2,10.56-9.4,10.56-5.69,0-9.85-3.32-9.85-10.96Z"/><path d="M569.72,154.06c0-8.16,5.83-12.92,12.74-12.92,5.91,0,9.29,3.52,9.29,6.72,0,1.64-.89,3.16-2.86,3.16-1.82,0-2.71-1.32-2.82-3.08-.15-2.6-1.45-5.32-4.83-5.32-3.83,0-6.13,3.56-6.09,9.16.04,7.84,4.68,12.08,9.66,12.08,2.08,0,4.2-.76,6.13-3.08l.85.76c-.97,1.92-4.01,5.48-9.62,5.48-6.5,0-12.45-4.72-12.45-12.96Z"/><path d="M659.34,162.9v-16.8c0-2.16-.37-2.52-2.71-2.52-2.64,0-3.46,1.04-4.53,4.24h-1.23l.67-5.48c.04-.44.3-.68.71-.64.48.04,1.37.08,2.23.08h14.79c.85,0,1.75-.04,2.23-.08.41-.04.67.2.71.64l.67,5.48h-1.23c-1.08-3.2-1.89-4.24-4.53-4.24-2.34,0-2.71.36-2.71,2.52v16.8c0,1.56.89,2.2,3.9,2.44v1.28h-12.86v-1.28c3.01-.24,3.9-.88,3.9-2.44Z"/><path d="M734.31,162.94v-17.48c0-1.52-.89-2.16-2.56-2.4v-1.28h10.18v1.28c-1.67.24-2.56.88-2.56,2.4v17.48c0,1.52.89,2.16,2.56,2.4v1.28h-10.18v-1.28c1.67-.24,2.56-.88,2.56-2.4Z"/><path d="M800.81,154.3c0-8.08,5.76-13.16,12.37-13.16s12.04,4.76,12.04,12.64-5.76,13.24-12.37,13.24-12.04-4.76-12.04-12.72ZM813.89,165.26c2.82,0,5.83-2.52,5.83-9.44,0-7.48-3.42-12.92-7.58-12.92-2.82,0-5.83,2.52-5.83,9.36,0,7.56,3.42,13,7.58,13Z"/><path d="M886.45,162.94v-17.48c0-1.52-1.04-2.16-2.71-2.4v-1.28h6.17l13,16.76v-13.08c0-1.52-1.04-2.16-2.71-2.4v-1.28h7.32v1.28c-1.67.24-2.71.88-2.71,2.4v21.16h-1.86l-14.6-18.8v15.12c0,1.52,1.04,2.16,2.71,2.4v1.28h-7.32v-1.28c1.67-.24,2.71-.88,2.71-2.4Z"/><path d="M235.08,67.38v1.99c-8.24,0-9.38,1.53-9.38,35.81-8.81,3.67-20.89,6.43-36.1,6.43-30.7,0-46.9-24.79-46.9-55.24S158.91,1.12,189.6,1.12c17.2,0,27.15,2.45,35.96,8.72l-1.28,24.79h-2.98c-2.13-25.55-14.78-31.52-31.69-31.52s-28.57,11.17-28.57,53.25,12.65,53.25,28.57,53.25,23.45-3.98,23.45-16.68c0-23.11-1.99-23.56-11.37-23.56v-1.99h33.4Z"/><path d="M281.55,2.5v1.99c-6.11,0-9.95,2.6-9.95,12.09v77.27c0,10.4,3.98,14.38,9.95,14.38v1.99h-34.54v-1.99c6.11,0,9.95-3.98,9.95-14.38V16.58c0-9.49-3.7-12.09-9.95-12.09v-1.99h34.54Z"/><path d="M322.2,110.22h-28.42v-1.38c6.11,0,8.24-6.58,8.24-16.98V20.55c0-9.49-1.99-16.68-8.24-16.68v-1.38h28.42c19.75,0,36.52,1.22,36.52,26.17s-20.89,26.32-23.73,26.32c9.24,0,30.41,1.99,30.41,27.85s-18.62,27.39-43.2,27.39ZM316.65,4.49v50.19h8.53c8.81,0,18.19-2.91,18.19-26.17s-11.8-24.02-20.47-24.02h-6.25ZM325.18,56.67h-8.53v51.57h6.25c13.64,0,26.58.31,26.58-26.01,0-24.79-13.79-25.55-24.3-25.55Z"/><path d="M463.6,110.22h-10.8c-18.19,0-16.06-.15-24.16-33.36-3.98-16.07-18.33-16.07-22.03-16.07h-6.68v33.51c0,10.56,3.13,13.92,9.1,13.92v1.99h-31.83v-1.99c6.11,0,8.81-3.06,8.81-15.91V16.12c0-9.49-2.56-11.63-8.81-11.63v-1.99h27.15c28.28,0,43.92,3.67,43.92,29.23,0,20.81-11.09,26.93-26.43,28,9.38.46,19.19,1.53,26.58,35.04,2.56,11.63,11.51,13.16,15.21,13.47v1.99ZM404.34,4.49h-4.41v54.32h4.41c16.06,0,28.28.15,28.28-27.08s-13.08-27.24-28.28-27.24Z"/><path d="M560.1,110.22h-32.4v-1.99c7.67,0,6.25-8.72,2.98-17.29l-4.97-13.31h-36.81c-3.84,12.24-10.09,31.22,9.66,30.6v1.99h-31.69v-1.99c5.4-.15,8.95-.77,21.32-36.11L511.92,2.5h1.56c17.34,44.99,34.96,93.34,34.96,93.34,4.69,12.24,7.67,12.09,11.65,12.39v1.99ZM525.14,75.64l-18.62-50.8-17.2,50.8h35.81Z"/><path d="M641.24,77.02v33.2h-70.92v-1.99c6.11,0,7.82-5.81,7.82-16.22V17.34c0-9.33-2.84-12.85-8.95-12.85v-1.99h33.83v1.99c-6.11,0-10.52,2.6-10.52,13.62v90.13h5.12c15.21.15,39.37,0,41.78-31.21h1.85Z"/><path d="M726.23,2.5v26.93h-1.85c-.57-24.64-24.3-24.94-26.29-24.94h-8.38v90.89c0,10.1,4.41,12.85,10.37,12.85v1.99h-34.68v-1.99c5.97,0,10.23-2.75,10.23-12.85V4.49h-8.38c-4.41,0-25.58.31-26.15,24.94h-1.85V2.5h86.98Z"/><path d="M814.34,110.22h-32.4v-1.99c7.67,0,6.25-8.72,2.99-17.29l-4.97-13.31h-36.81c-3.84,12.24-10.09,31.22,9.67,30.6v1.99h-31.69v-1.99c5.4-.15,8.95-.77,21.32-36.11l23.73-69.62h1.56c17.34,44.99,34.96,93.34,34.96,93.34,4.69,12.24,7.67,12.09,11.65,12.39v1.99ZM779.38,75.64l-18.62-50.8-17.2,50.8h35.81Z"/><path d="M907.71,110.22h-10.8c-18.19,0-16.06-.15-24.16-33.36-3.98-16.07-18.33-16.07-22.03-16.07h-6.68v33.51c0,10.56,3.13,13.92,9.1,13.92v1.99h-31.83v-1.99c6.11,0,8.81-3.06,8.81-15.91V16.12c0-9.49-2.56-11.63-8.81-11.63v-1.99h27.15c28.28,0,43.92,3.67,43.92,29.23,0,20.81-11.08,26.93-26.43,28,9.38.46,19.19,1.53,26.58,35.04,2.56,11.63,11.51,13.16,15.21,13.47v1.99ZM848.45,4.49h-4.41v54.32h4.41c16.06,0,28.28.15,28.28-27.08s-13.08-27.24-28.28-27.24Z"/><path d="M111.38,91.23v20.33H.16c0-37.06,0-74.12,0-111.17,37.08,0,74.15,0,111.23,0,0,28.24,0,56.49,0,84.73-.17-.03-.34-.03-.5-.09-1.02-.37-2.04-.73-3.04-1.14-.31-.13-.59-.36-.83-.6-.45-.45-.42-.79.05-1.23.11-.11.2-.24.36-.43-.89-.09-1.39-.62-1.49-1.29-.19-1.2-.46-2.45.12-3.64.78-1.59.69-3.32.82-5.02.03-.41-.16-.58-.62-.6-.79-.04-1.58-.16-2.35-.33-.31-.07-.51-.1-.79.09-.98.66-2.37.54-3-.33-.48-.65-1.09-.59-1.74-.61-.32-.01-.7-.08-.93-.27-.72-.57-1.37-1.21-2.06-1.81-.15-.13-.34-.3-.52-.31-1.38-.06-2.39-.81-3.33-1.71-.17-.16-.46-.29-.68-.27-.5.03-.85-.2-1.2-.5-.17-.15-.39-.3-.61-.33-.42-.06-.87-.11-1.29-.03-.4.07-.82.24-1.15.49-.64.48-.77,1.23-.71,1.97.11,1.44.28,2.88.44,4.32.06.59.15,1.18.22,1.77.88-.16,1.43-.75,1.47-1.73.05-1.28.79-2.13,1.65-2.94.31-.29.66-.29.97,0,.18.18.35.38.49.59.34.52.66,1.05,1,1.57.59.9.75,2.85-.49,3.45-.3.15-.54.43-.78.68-.61.62-.68,1.15-.29,1.92.18.35.41.71.46,1.08.18,1.25.15,1.26,1.37,1.61.25.07.5.13.74.23.15.06.28.18.42.28.35.27.67.62,1.06.79,1.26.56,2.24,1.48,3.28,2.34,1.03.85,1.95,1.85,3.02,2.66.58.44,1.35.77,2.06.85.62.07,1.11.24,1.58.61.26.2.51.42.78.6,1.57,1.04,3.12,2.09,4.72,3.08.37.23.88.22,1.32.32ZM57.46,45.57c-.5.23-.9.4-1.29.58-.95.43-1.77-.16-1.68-1.22.07-.76.19-1.52.19-2.27,0-.89,0-1.81-.19-2.67-.11-.51-.34-.96-.15-1.48.11-.33-.02-.48-.35-.53-.43-.07-.86-.14-1.27-.26-.99-.28-1.87-1.48-1.7-2.48.18-1.06.03-2.02-.44-2.96-.08-.17-.14-.35-.18-.54-.03-.14,0-.29,0-.44.15,0,.32-.03.44.04.58.29,1.1.19,1.61-.15.2-.14.42-.24.63-.37.27-.16.4-.06.58.19.45.64.96,1.25,1.44,1.87.14.17.29.34.38.54.3.64.62,1.22,1.32,1.52.29.13.54.38.77.61.11.11.21.28.24.44.27,1.63.57,3.26.49,4.94-.02.47.16.95.29,1.41.06.22.2.38.46.19.52-.38.68-1.2.33-1.74-.31-.46-.35-.92-.05-1.4.2-.32.36-.67.54-1.01.4-.75.44-1.45-.13-2.17-.49-.62-.35-1.2.27-1.64.25-.18.42-.17.58.13.18.33.39.65.6.97.25.37.6.42.94.17.44-.31.83-.68,1.27-.99.26-.18.55-.41.85-.44.71-.07,1.04-.47,1.21-1.08.08-.28.06-.6.17-.86.09-.19.31-.37.51-.45.15-.06.37.02.56.05.59.08,1.07-.47.81-1-.18-.36-.45-.69-.72-1-.89-1.02-1.92-1.95-1.65-3.54.06-.36-.07-.9-.32-1.15-.85-.83-1.31-1.84-1.73-2.91-.12-.31-.55-.74-.82-.72-.7.05-1.2-.27-1.49-.76-.64-1.05-1.17-2.18-1.74-3.28-.02-.04-.03-.1-.03-.15-.06-1.21-.13-2.41-.16-3.62-.01-.45-.08-.79-.55-1-.29-.13-.55-.36-.81-.56-.45-.36-.49-.72-.24-1.23.29-.6.53-1.23.81-1.84.06-.12.18-.28.29-.3,1.31-.21,2.17-1.07,3-2,.62-.7,1.28-1.36,1.92-2.04.43-.45.91-.51,1.51-.33,1.82.56,3.21,1.74,4.54,3.02.81.78,1.54,1.66,2.42,2.34.75.58,1.66.96,2.5,1.42.45.25.99.39,1.34.73,1.07,1.03,2.05,2.16,3.12,3.19.26.26.72.33,1.1.44.22.07.56-.03.7.11.66.62,1.43,1.2,1.87,1.97.72,1.24,1.58,2.25,2.86,2.9.2.1.39.23.55.39,1.38,1.36,2.83,2.66,3.9,4.3.34.52.69,1.03.7,1.69,0,.25.09.54.24.73.7.88,1.33,1.84,2.18,2.55.96.79,1.91,1.58,2.78,2.47,2.07,2.11,4.18,4.19,6.36,6.19.91.83,1.27,1.81,1.27,2.92,0,1.12.46,1.77,1.45,2.12,1.71.6,2.98,1.8,4.14,3.11.22.25.39.64.41.97.05.71.26,1.17,1.05,1.28.47.07.73,0,.87-.44.06-.18.06-.37.06-.56,0-15.67,0-31.33.02-47,0-.48-.17-.57-.6-.57-3.73,0-7.45,0-11.18-.02-32.68-.09-65.37-.18-98.05-.26-.82,0-.82,0-.82.79,0,36.39,0,72.78,0,109.16,0,.18,0,.36,0,.57.35,0,.61,0,.87,0,30.8,0,61.59,0,92.39.01.68,0,1.09-.23,1.43-.79.24-.4.15-.6-.23-.76-.47-.19-.88-.44-1.2-.86-.12-.16-.48-.21-.72-.2-1.16.05-2.31.2-3.46.2-.42,0-.92-.25-1.24-.53-.44-.4-.89-.55-1.45-.52-.65.04-1.32.11-1.95.01-1.76-.28-1.78-.72-1.6-2.13.04-.32,0-.65,0-.98-.05-.01-.09-.02-.14-.03-.41.65-.82,1.3-1.24,1.94-.17.26-.33.53-.54.75-.1.1-.32.15-.46.11-.48-.14-.98-.26-1.41-.51-.57-.34-1.08-.22-1.46.18-.6.62-1.34.62-2.1.69-.72.07-1.44.15-2.14.32-1.17.27-2.64-.83-2.6-2,0-.17,0-.35-.03-.52-.08-.43-.35-.55-.63-.22-.37.44-.72.93-.95,1.46-.39.88-1.01,1.41-1.95,1.49-.74.06-1.5-.03-2.25-.01-1.17.02-2.33.07-3.5.13-.22.01-.42.16-.64.19-.28.04-.57.03-.85.01-.23-.01-.45-.07-.68-.09-.56-.06-1.11.07-1.65.1-3.13.17-6.26.19-9.4.25-.67.01-1.33-.05-1.7-.76-.06-.11-.19-.21-.32-.26-1.08-.46-2-1.21-3.3-1.2-1.73.02-3.46-.15-5.17.22-.28.06-.58.03-.87,0-.68-.08-1.37-.25-2.05-.26-.82-.02-1.34.44-1.62,1.21-.12.34-.28.67-.42,1-.16.37-.42.48-.8.29-.65-.32-1.31-.63-1.97-.92-.19-.08-.43-.15-.63-.11-.98.2-1.9.13-2.77-.42-.41-.26-.91-.39-1.37-.55-.55-.19-1.11-.36-1.67-.51-.18-.05-.51-.1-.56-.02-.31.54-.68.3-1.06.13-.99-.46-1.99-.83-3.08-.32-.09.04-.23-.02-.35-.04-.3-.05-.6-.13-.91-.14-.68-.02-1.37.08-2.02-.03-.68-.11-1.36-.36-1.99-.65-.75-.34-1.42-.83-2.16-1.19-.34-.17-.76-.23-1.15-.25-1.33-.08-2.66-.13-3.99-.16-1.6-.03-2.77-.76-3.56-2.13-.11-.19-.2-.54-.11-.65.54-.65,1.08-1.33,1.75-1.82.29-.21.89,0,1.34.03.07,0,.14,0,.21.02.78.25,1.3-.25,1.88-.61.28-.18.58-.36.89-.43.82-.17,1.69-.13,2.41-.67.12-.09.42-.06.56.03.71.46,1.42.92,2.07,1.45.25.2.39.57.51.89.13.35.14.75.27,1.1.17.47.48.6.89.31.27-.19.48-.52.62-.84.17-.39.29-.69.81-.79.96-.18,1.54-.88,1.98-1.66-.51-.35-.99-.63-1.4-.99-.93-.83-.94-1.98-.05-2.83.68-.64,1.37-1.27,2.06-1.9q.62-.57-.02-1.12c-.95-.84-1.17-1.63-.66-2.55.17-.29.4-.58.67-.78.65-.47,1.13-1.05,1.46-1.77.21-.46.52-.45.93-.28.54.22,1.09.45,1.66.57.28.06.7-.02.9-.21.32-.29.63-.4,1.02-.36.46.05.76-.15,1.06-.5.59-.67,1.26-1.27,1.9-1.89.1-.09.23-.16.36-.19.65-.15.88-.58.91-1.21.02-.34.07-.72.25-.98.37-.55.83-1.05,1.26-1.57,1.22.6,1.52.52,2.24-.67.74-1.22,2.11-.99,2.64.02.3.58.49,1.26.55,1.91.09.89.03,1.8.03,2.7,0,3.22,0,6.44-.04,9.65-.01,1.32-.21,2.64.43,3.91.81,1.62,1.48,3.31,2.27,4.94.35.72,1.31.85,1.94.38.25-.19.5-.38.73-.58.27-.23.5-.21.79-.01.69.48,1.19,1.09,1.52,1.86.08.18.35.29.55.4.04.02.26-.15.25-.18-.06-.19-.17-.37-.27-.55-.02-.04-.09-.06-.11-.1-.25-.4-.21-.84.08-1.15.17-.18.57-.3.82-.24.66.16.92,1.03.52,1.59-.18.25-.3.45-.03.72.26.27.44.61.94.39.47-.2.99-.29,1.47-.46.1-.03.22-.17.24-.28.17-.84.67-1.43,1.3-1.98,1.03-.9,1-.94-.13-1.72-1.32-.91-1.44-1.23-.97-2.78,0-.02,0-.03.01-.05.22-.5.33-.98-.11-1.43-.07-.07-.08-.22-.1-.34-.09-.71.19-1.28.73-1.74.71-.61.72-.74.21-1.5-.27-.4-.48-.84-.72-1.26-.41-.71-.17-1.36.29-1.91.45-.53,1.07-.67,1.74-.45.45.15.9.3,1.38.45.05-.15.08-.25.12-.34.32-.85.49-1.75,1.13-2.47.39-.44.41-1.01.15-1.56-.41-.89-.83-1.79-1.22-2.69-.12-.26-.24-.56-.23-.84.04-1.12.1-2.25.21-3.37.08-.83.36-1.64.19-2.51-.07-.33.2-.74.32-1.11.12-.33.31-.65.37-.99.12-.72.26-1.43.7-2.04.61-.84.54-1.68.08-2.58-.24-.48-.39-1.03-.44-1.57-.11-1.05-.34-1.28-1.41-1.2-.65.05-1.31.14-1.96.14-1.09,0-2.44-1.41-1.45-2.78.33-.46.69-.92,1.12-1.29.92-.78,1.86-1.55,2.85-2.23.51-.35.69-.2.74.42.04.55.04,1.11.1,1.66.05.49.17.98.26,1.47.09.02.17.03.26.05.21-.36.53-.7.6-1.08.11-.67.1-1.37.08-2.06-.03-1-.27-2.02-.13-3,.2-1.4.48-2.84,2.11-3.46.71-.27.91-.9.52-1.36-.72-.86-.61-1.86-.57-2.85.01-.42.07-.86,0-1.27-.16-.85-.34-1.69.11-2.62ZM80.14,52.76c0-.55.01-.99,0-1.43-.03-1.17.48-1.98,1.57-2.44.54-.23.72-.19,1.01.31.1.18.17.38.21.58.12.54.2,1.09.34,1.62.5,2.06.25,4.02-.85,5.84-.21.34-.59.62-.95.82-1.05.58-2.5.05-3.32-.9-.66-.77-1.54-.73-2.35-.39-.57.23-1.01.62-1,1.26,0,.64.13,1.27.74,1.68.95.64,1.64,1.48,1.9,2.63.05.22.11.44.21.64.29.64.91.82,1.42.35.58-.54,1.06-1.18,1.61-1.75.12-.13.34-.28.48-.26.71.11,1.52.99,1.61,1.72.14,1.26-.12,2.4-.99,3.37-.19.21-.44.47-.45.72-.05.75-.15,1.52.27,2.23.09.15.12.36.13.55.09,1.36.16,2.72.26,4.08.03.35.1.72.25,1.04.16.35.48.47.87.31.69-.28,1.12-1.61.72-2.19-1.12-1.59-1.28-3.52-1.72-5.33-.25-1.03.63-1.94,1.68-1.97.55-.01.87-.26.98-.8.06-.29.12-.58.1-.87-.05-.83-.15-1.65-.21-2.48-.07-.99.56-1.53,1.54-1.34.68.13.97-.07.95-.76-.03-1.1-.12-2.2-.18-3.31,0-.19,0-.38.04-.56.09-.39.03-.66-.41-.8-.47-.15-.67-.46-.61-.99.08-.69.09-1.38.11-2.07,0-.19,0-.39-.05-.56-.31-.86-.14-1.59.53-2.21.43-.4.48-.66.09-1.11-.31-.36-.73-.63-1.1-.93-.56-.46-1.17-.87-1.67-1.39-.69-.72-1.27-1.54-1.94-2.28-.47-.52-.66-.51-1.26-.15-.68.41-1.4.68-2.21.61-.89-.07-1.79-.18-2.68-.19-.35,0-.74.14-1.06.32-.55.32-1.06.71-1.59,1.08-.33.24-.6.15-.87-.12-.44-.44-.3-.89,0-1.3.32-.45.36-.84.03-1.32-.42-.62-.45-1.27.03-1.92.4-.55.52-1.22.4-1.88-.05-.29-.28-.72-.49-.76-.56-.11-1.17-.13-1.72,0-.33.08-.56.15-.85-.03-.19-.12-.4-.2-.59-.33-.25-.18-.44-.15-.7.02-.89.59-.98,1.47-.89,2.39.07.74.18,1.48.38,2.19.32,1.09.68,2.17,1.13,3.2.36.82,1.07,1.3,2.01,1.35.88.05,1.76.08,2.64.17.46.05.76-.09,1.08-.43.45-.49.99-.9,1.41-1.28.73.46,1.41.82,1.99,1.29.4.32.74.76.98,1.21.22.4.11.84-.29,1.16-.49.38-.95.8-1.46,1.17-.6.44-1.28.65-2.04.64-1.26-.02-2.53-.01-3.79.02-.37,0-.77.09-1.1.23-.75.33-1.22.95-1.42,1.75-.06.22-.1.54.3.5.8-.09,1.42.2,2,.75.46.43.82.86.82,1.48,0,.9.66,1.18,1.29,1.5.11.05.3.05.4-.02.57-.4,1.03-.9,1.29-1.58-.14-.07-.23-.12-.32-.15-.66-.21-.89-.46-.91-1.02-.03-.99.15-1.28.84-1.58.64-.28,1.27-.61,1.87-.97.35-.21.65-.51,1.06-.83.78.7,1.58,1.4,2.49,2.21ZM62.56,74.67c0-.38.02-.72,0-1.06-.07-.83.07-1.59.39-2.37.26-.64.39-1.36.43-2.05.12-2,.17-4.01.23-6.01,0-.14-.04-.35-.13-.4-.1-.06-.35-.02-.42.07-.33.41-.73.81-.9,1.28-.19.52-.2,1.12-.2,1.69,0,1.04-.27,1.99-.83,2.85-.71,1.08-1.44,2.16-2.21,3.2-.53.71-.71,1.45-.61,2.33.15,1.26.42,1.28-1.12,1.67-.61.15-.71.42-.45.99.61,1.32.67,2.7.19,4.03-.29.82-.31,1.52.09,2.27.73,1.37.68,2.85.43,4.31-.27,1.6-1.12,2.18-2.71,2-.03,0-.07,0-.1-.01-.65-.05-1,.38-.74.98.18.42.46.82.76,1.16.63.72.96,1.51.77,2.47-.1.52.07.95.34,1.41.31.54.6,1.16.65,1.77.12,1.45.63,2.67,1.69,3.67.6.57,1.16,1.18,1.39,2.02.08.31.29.59.49.85.1.14.29.26.46.28.74.12,2.11-.61,2.4-1.28.08-.19.1-.45.04-.65-.33-.96-.29-1.93-.28-2.92.04-3.39.03-6.78.08-10.17.01-.85-.09-1.64-.54-2.38-.16-.27-.29-.74-.17-.96.51-.88.62-1.86.82-2.82.13-.63.22-1.3.15-1.94-.1-.91-.36-1.05-1.27-1.06-.21,0-.42,0-.62,0-.66-.01-.93-.29-.8-.95.17-.88.03-1.68-.5-2.41-.07-.1-.12-.21-.18-.32-.45-.87-.25-1.39.7-1.52.72-.1,1.47-.02,2.3-.02ZM64.54,53.7c-.22.47-.43.84-.59,1.23-.32.78-.73,1.54-.9,2.36-.1.49.1,1.09.3,1.59.07.17.55.17.83.27.51.17.68-.17.84-.54.09-.2.11-.48.26-.6.46-.37.51-.87.58-1.39.16-1.21-.44-2.06-1.33-2.92ZM62.31,53.37c.58-.19.71-.57.73-1.01.03-.53,0-1.07.03-1.61.02-.68.23-1.26.9-1.57.32-.15.31-.35.13-.57-.26-.32-.49-.71-.83-.91-.32-.18-.83-.29-1.14-.16-.22.09-.29.63-.34.98-.03.26.1.54.12.81.02.2.05.47-.06.59-.5.61-.29,1.24-.1,1.86.16.53.38,1.05.57,1.58Z" style="fill:#fff;"/><path d="M111.91,91c-.45-.1-.97-.09-1.34-.32-1.61-1-3.19-2.07-4.77-3.12-.28-.18-.53-.4-.79-.61-.47-.37-.96-.54-1.59-.62-.72-.08-1.5-.42-2.09-.86-1.08-.81-2.01-1.82-3.05-2.69-1.05-.86-2.05-1.79-3.31-2.36-.4-.18-.71-.53-1.07-.8-.14-.1-.27-.22-.42-.28-.24-.1-.5-.16-.75-.23-1.23-.36-1.21-.36-1.39-1.63-.05-.38-.29-.74-.47-1.1-.39-.78-.32-1.31.3-1.94.24-.25.48-.54.79-.69,1.26-.61,1.1-2.58.5-3.49-.34-.52-.66-1.06-1.01-1.58-.14-.22-.31-.42-.5-.6-.31-.3-.67-.3-.98,0-.87.81-1.61,1.67-1.66,2.97-.04.99-.6,1.58-1.48,1.75-.08-.6-.16-1.19-.23-1.79-.16-1.46-.34-2.91-.45-4.37-.06-.74.08-1.5.72-1.99.33-.25.75-.42,1.16-.49.42-.08.87-.03,1.3.03.22.03.44.18.62.34.35.31.7.54,1.21.51.23-.01.52.11.69.28.96.91,1.97,1.66,3.37,1.73.18,0,.37.18.52.31.7.61,1.36,1.26,2.09,1.83.24.19.62.26.94.27.66.02,1.28-.04,1.76.62.64.87,2.05,1,3.04.33.29-.19.49-.16.8-.09.78.17,1.58.29,2.37.33.47.02.66.2.63.61-.13,1.72-.04,3.47-.83,5.08-.59,1.21-.31,2.46-.12,3.68.11.68.61,1.21,1.51,1.31-.16.19-.25.32-.37.43-.47.45-.51.78-.05,1.24.24.24.52.48.84.61,1.01.41,2.04.78,3.07,1.15.16.06.34.06.51.09v6.19Z"/><path d="M57.38,45.38c-.45.93-.27,1.78-.11,2.64.08.41.02.85,0,1.28-.03,1.01-.14,2.02.58,2.88.39.47.2,1.1-.52,1.37-1.65.62-1.93,2.08-2.13,3.49-.14.98.1,2.01.13,3.03.02.69.04,1.4-.08,2.08-.06.39-.39.73-.6,1.09-.09-.02-.17-.03-.26-.05-.09-.5-.2-.99-.26-1.49-.06-.55-.06-1.12-.1-1.67-.05-.62-.23-.78-.74-.42-1,.69-1.95,1.46-2.87,2.25-.43.37-.8.83-1.13,1.3-.99,1.38.37,2.8,1.47,2.8.66,0,1.32-.09,1.98-.14,1.08-.08,1.31.15,1.42,1.21.06.54.21,1.1.45,1.59.46.91.53,1.76-.08,2.61-.45.62-.59,1.33-.71,2.06-.06.35-.26.67-.37,1-.13.37-.4.78-.33,1.12.18.88-.11,1.69-.19,2.53-.11,1.13-.17,2.26-.21,3.4-.01.28.11.58.23.85.4.91.82,1.81,1.23,2.72.26.56.25,1.13-.15,1.58-.65.73-.82,1.64-1.14,2.49-.04.09-.07.19-.12.34-.48-.16-.93-.31-1.39-.46-.68-.23-1.31-.08-1.76.45-.47.56-.71,1.21-.3,1.93.24.42.46.87.72,1.27.51.76.5.9-.21,1.51-.54.46-.82,1.03-.73,1.76.01.12.02.27.1.34.45.46.34.94.11,1.45,0,.02,0,.03-.01.05-.47,1.57-.36,1.89.98,2.81,1.14.78,1.17.83.13,1.74-.64.56-1.14,1.16-1.31,2-.02.11-.14.25-.24.28-.49.17-1.01.26-1.49.46-.51.22-.68-.13-.95-.4-.27-.27-.15-.47.03-.72.41-.57.14-1.44-.52-1.61-.25-.06-.65.06-.82.24-.29.31-.33.76-.08,1.16.03.04.09.06.12.1.1.18.21.36.27.56.01.03-.21.21-.25.18-.2-.11-.47-.22-.55-.4-.33-.78-.84-1.4-1.53-1.88-.29-.2-.53-.22-.79.01-.24.21-.49.4-.74.59-.63.48-1.6.34-1.95-.38-.8-1.64-1.47-3.35-2.29-4.99-.64-1.29-.44-2.61-.43-3.95.04-3.25.03-6.5.04-9.75,0-.91.07-1.82-.03-2.72-.07-.66-.25-1.35-.56-1.93-.53-1.01-1.91-1.25-2.66-.02-.73,1.2-1.03,1.28-2.26.68-.43.53-.9,1.02-1.27,1.58-.18.27-.23.66-.25.99-.04.63-.26,1.07-.92,1.22-.13.03-.27.1-.37.19-.65.63-1.32,1.24-1.92,1.91-.31.35-.61.55-1.07.5-.4-.04-.71.07-1.03.36-.2.19-.62.27-.91.21-.57-.12-1.13-.35-1.67-.58-.42-.17-.73-.18-.94.28-.33.73-.82,1.32-1.47,1.79-.27.2-.51.49-.67.79-.52.92-.3,1.73.66,2.57q.64.57.02,1.14c-.7.64-1.4,1.27-2.08,1.92-.9.85-.89,2.02.05,2.85.41.36.9.64,1.41,1-.44.79-1.03,1.49-2,1.68-.53.1-.64.4-.82.8-.14.32-.35.65-.62.85-.41.29-.72.17-.9-.31-.13-.36-.14-.76-.27-1.11-.12-.32-.26-.7-.51-.9-.66-.54-1.37-1.01-2.09-1.47-.14-.09-.44-.12-.56-.03-.74.54-1.61.5-2.44.67-.32.06-.62.25-.9.43-.58.37-1.11.87-1.9.62-.07-.02-.14-.02-.21-.02-.46-.02-1.07-.24-1.36-.03-.68.5-1.22,1.19-1.77,1.84-.1.11,0,.47.11.66.79,1.38,1.97,2.12,3.59,2.15,1.34.02,2.68.08,4.02.16.39.02.81.09,1.16.26.75.36,1.43.85,2.18,1.2.64.29,1.32.55,2.01.66.66.11,1.36,0,2.04.03.31,0,.61.09.92.14.12.02.26.08.35.04,1.11-.51,2.11-.14,3.11.33.38.18.75.42,1.07-.13.04-.08.38-.03.56.02.57.16,1.13.33,1.68.52.47.16.97.29,1.39.55.89.56,1.81.63,2.8.43.2-.04.44.03.64.11.67.29,1.33.61,1.99.93.38.18.64.07.8-.3.15-.33.3-.67.43-1.01.28-.78.81-1.23,1.64-1.22.69.01,1.38.18,2.07.26.29.03.6.06.88,0,1.73-.38,3.47-.21,5.21-.22,1.32-.01,2.24.75,3.33,1.21.12.05.26.15.32.26.37.71,1.04.78,1.71.77,3.16-.06,6.32-.08,9.48-.25.54-.03,1.1-.16,1.66-.1.23.02.46.08.69.09.29.01.58.02.86-.01.22-.03.43-.18.65-.19,1.18-.06,2.35-.11,3.53-.13.76-.02,1.52.07,2.27.01.95-.07,1.58-.62,1.97-1.5.23-.53.58-1.02.96-1.47.28-.33.55-.21.63.22.03.17.04.35.03.52-.04,1.18,1.44,2.3,2.62,2.02.71-.17,1.44-.25,2.16-.32.76-.07,1.51-.07,2.11-.7.39-.4.9-.53,1.48-.18.43.25.94.38,1.42.52.14.04.37-.02.46-.12.21-.22.38-.49.55-.75.42-.65.84-1.31,1.25-1.96.05.01.09.02.14.03,0,.33.04.66,0,.99-.19,1.42-.16,1.87,1.61,2.15.64.1,1.31.02,1.97-.01.57-.03,1.02.12,1.47.52.32.29.82.54,1.25.54,1.16,0,2.33-.14,3.49-.2.25-.01.61.04.73.2.32.43.73.68,1.21.87.39.16.47.37.23.77-.34.57-.75.8-1.44.8-31.06-.02-62.12-.01-93.18-.01-.26,0-.52,0-.87,0,0-.21,0-.39,0-.57C0,74.28,0,37.54,0,.79,0,0,0,0,.83,0c32.97.09,65.93.18,98.9.27,3.76.01,7.52.02,11.27.02.44,0,.61.09.6.57-.01,15.82-.01,31.64-.02,47.46,0,.19,0,.39-.06.57-.14.46-.41.51-.88.45-.79-.11-1.01-.58-1.06-1.3-.02-.34-.19-.73-.42-.98-1.18-1.33-2.45-2.54-4.18-3.14-1-.35-1.47-1.01-1.46-2.14,0-1.12-.36-2.11-1.28-2.95-2.2-2.01-4.33-4.12-6.42-6.25-.88-.9-1.84-1.69-2.81-2.5-.86-.71-1.5-1.69-2.2-2.57-.15-.19-.24-.49-.24-.73-.01-.67-.36-1.18-.71-1.71-1.09-1.65-2.54-2.97-3.93-4.34-.16-.16-.35-.29-.55-.39-1.29-.66-2.16-1.68-2.88-2.93-.45-.77-1.22-1.36-1.89-1.99-.14-.13-.47-.04-.7-.11-.38-.12-.85-.19-1.11-.45-1.08-1.04-2.07-2.18-3.15-3.22-.36-.34-.9-.49-1.35-.74-.85-.46-1.77-.84-2.52-1.43-.89-.69-1.62-1.58-2.44-2.37-1.34-1.29-2.74-2.48-4.58-3.05-.61-.19-1.09-.12-1.52.33-.65.68-1.31,1.36-1.94,2.06-.83.94-1.71,1.8-3.02,2.02-.11.02-.24.18-.3.3-.28.61-.52,1.25-.82,1.86-.25.51-.21.88.24,1.24.26.21.52.44.81.57.47.21.54.55.55,1.01.03,1.22.1,2.44.16,3.65,0,.05,0,.11.03.15.58,1.11,1.11,2.24,1.76,3.31.3.49.8.82,1.51.77.26-.02.7.41.82.72.42,1.08.88,2.11,1.74,2.94.25.25.39.79.33,1.16-.27,1.6.77,2.54,1.67,3.57.27.31.55.64.73,1.01.26.53-.22,1.09-.82,1.01-.19-.03-.41-.11-.56-.05-.2.09-.42.26-.51.46-.12.26-.09.58-.17.86-.17.62-.51,1.03-1.23,1.09-.3.03-.59.26-.86.44-.44.31-.84.69-1.28.99-.35.24-.7.2-.95-.18-.21-.32-.42-.64-.6-.98-.16-.3-.33-.31-.58-.13-.63.45-.77,1.04-.27,1.66.57.72.53,1.43.13,2.19-.18.34-.34.69-.54,1.01-.3.49-.26.95.05,1.42.36.54.2,1.37-.33,1.75-.26.19-.41.03-.47-.19-.12-.47-.31-.95-.29-1.42.07-1.69-.23-3.34-.5-4.99-.03-.16-.12-.33-.24-.44-.24-.23-.48-.49-.78-.61-.71-.31-1.04-.9-1.33-1.54-.09-.2-.25-.37-.39-.55-.49-.63-1-1.24-1.46-1.89-.18-.25-.31-.35-.58-.19-.21.12-.43.23-.63.37-.52.35-1.04.45-1.62.16-.12-.06-.29-.03-.44-.04,0,.15-.03.3,0,.44.04.19.1.37.18.54.47.95.62,1.92.44,2.99-.17,1,.72,2.22,1.72,2.5.42.12.85.19,1.28.26.33.05.47.21.35.54-.19.53.04.99.15,1.5.2.87.19,1.8.19,2.7,0,.77-.13,1.53-.19,2.3-.09,1.07.73,1.67,1.69,1.23.39-.18.79-.35,1.3-.58ZM53.4,28.13c.21-.43.4-.85.62-1.26.4-.73.81-1.46,1.23-2.18.15-.25.4-.41.65-.18.81.75,1.75,1.39,2.02,2.59.18.81.42,1.63.78,2.37.43.9.9,1.75,1.01,2.78.08.75,1.15,1.31,1.58.85.73-.78,1.7-1.06,2.62-1.47.73-.33,1.24-.9,1.48-1.67.23-.75.01-1.24-.61-1.67-.28-.2-.5-.21-.71.08-.27.37-.53.74-.8,1.1-.34.45-.78.47-1.13.04-.17-.21-.31-.47-.41-.72-.33-.83-.53-1.69-.5-2.6.03-.96-.24-1.86-.75-2.68-.51-.8-1.21-1.24-2.19-1.15-.47.05-.95.04-1.4.16-.53.14-.8-.08-.95-.53-.07-.21-.13-.44-.13-.66,0-.89.02-1.78.05-2.67.03-.94-.62-1.48-1.54-1.29-.61.13-1.23.25-1.85.37-.68.13-1.05.57-1.1,1.25-.05.66-.14,1.31-.22,1.97-.23.01-.37.03-.51.03-.67.01-.94.27-.93.95,0,.65.26,1.2.81,1.56.52.34.72.83.78,1.41.03.28.05.56.03.84-.07,1.01.38,1.67,1.29,2.04.24.1.47.22.79.36ZM42.8,70.82c-1.49-1.65-2.91-3.32-3.81-5.36-.59-1.34-.61-1.34-2.07-1.28-1.01.04-1.42.63-1.01,1.57.36.81.8,1.58,1.21,2.37.35.68.7,1.36,1.08,2.03.53.94,1.09,1.86,1.64,2.79.44.75.87,1.5,1.3,2.25.11.19.2.43.37.55.66.46,2.16.2,2.72-.36.45-.45.97-.83,1.51-1.17.46-.3.91-.15,1.22.3.18.26.35.52.51.79.15.25.35.33.61.17.56-.33,1.08-.76,1.68-.98.91-.34.93-.98.77-1.74-.01-.07,0-.14-.01-.21-.04-1.04-.62-1.71-1.52-2.14-.42-.2-.91-.3-1.3-.55-1.3-.83-2.53-.54-3.74.18-.37.22-.72.49-1.17.79ZM49.91,56.1c-.11-1.01-.11-1.77-.28-2.49-.39-1.69-1.46-3.02-2.44-4.39-.59-.82-1.3-1.45-2.36-1.57-.27-.03-.53-.15-.8-.22-.7-.17-1.39-.19-1.97.33-.55.49-.58,1.12-.43,1.78.16.69.56,1.22,1.16,1.62.71.47,1.33,1.04,1.59,1.88.18.56.5.96,1.02,1.19.43.18.45.49.36.85-.05.2-.16.39-.26.57-.78,1.34-.39,2.66.11,3.96.12.31.37.45.71.4.55-.07,1.11-.14,1.66-.19.81-.08,1.35-.52,1.53-1.29.21-.87.3-1.77.41-2.43ZM50.21,49.04c-.44,1.65.35,2.76,1.55,3.75.37.3.63.32.85-.03.36-.56.82-1.14.94-1.77.19-1.02.16-2.08.19-3.12.03-.97,0-1.95.05-2.92.06-1.4-.17-2.68-1.24-3.69-.34-.32-.71-.62-1.07-.93-1.36-1.18-1.67-1.16-2.84.24-.36.43-.4.86-.19,1.4.36.92.64,1.87.94,2.81.12.36.13.77.29,1.11.45.94.64,1.9.51,2.93,0,.07,0,.14,0,.21ZM45.71,33.71s-.06,0-.09.01c.11.65.14,1.32.34,1.95.35,1.1.83,2.15,1.73,2.94.58.51,1.27.55,1.92.35.6-.18.71-.81.78-1.37.02-.14.03-.28.02-.42-.05-2.08-.43-4.09-1.48-5.91-.08-.13-.38-.25-.52-.2-.3.11-.56.33-.84.51-.19.12-.37.28-.58.32-1.26.28-1.26.27-1.28,1.57,0,.09,0,.17,0,.26ZM17.16,90.85c-.09.07-.2.13-.27.22-.41.54-.9.83-1.62.69-.48-.09-.88.16-1.09.58-.25.51-.48,1.05-.59,1.6-.15.75.25,1.21,1.01,1.28,1.11.1,2.02-.28,2.83-1.07.95-.92,1.04-2.09-.28-3.3ZM17.11,98.18c-.01-.56-.97-1.54-1.33-1.54-.07,0-.14.03-.2.05-.92.33-1.12.91-.6,1.73.07.1.13.21.21.3.51.67.68.7,1.31.14.26-.23.47-.51.62-.67Z"/><path d="M80.15,52.19c-.92-.81-1.72-1.53-2.51-2.23-.41.32-.71.62-1.07.83-.61.36-1.24.69-1.89.98-.7.31-.88.6-.85,1.6.02.56.25.81.92,1.03.1.03.18.09.32.15-.27.69-.72,1.2-1.3,1.6-.09.07-.29.07-.4.02-.64-.32-1.31-.61-1.3-1.51,0-.63-.37-1.07-.83-1.5-.59-.55-1.21-.84-2.02-.75-.41.04-.36-.28-.3-.5.2-.8.67-1.43,1.43-1.76.34-.15.74-.23,1.11-.24,1.27-.03,2.55-.03,3.83-.02.77.01,1.45-.21,2.06-.65.51-.37.97-.79,1.47-1.18.41-.32.51-.76.29-1.17-.25-.46-.59-.9-.99-1.22-.59-.47-1.27-.83-2.01-1.3-.43.38-.97.8-1.42,1.29-.32.34-.62.49-1.09.44-.88-.09-1.78-.13-2.66-.17-.95-.05-1.66-.54-2.03-1.36-.46-1.04-.82-2.14-1.14-3.23-.21-.71-.31-1.47-.39-2.21-.09-.93,0-1.82.9-2.41.26-.17.45-.2.7-.02.18.13.4.21.59.34.29.19.52.11.85.03.55-.14,1.17-.11,1.73,0,.21.04.45.48.5.77.12.67,0,1.34-.41,1.9-.48.66-.46,1.32-.03,1.94.33.49.29.88-.03,1.33-.3.42-.44.87,0,1.31.27.27.54.36.87.12.53-.37,1.04-.77,1.6-1.09.32-.18.71-.33,1.07-.33.9.01,1.8.12,2.7.19.82.07,1.55-.2,2.23-.62.6-.37.8-.38,1.27.15.67.75,1.26,1.58,1.95,2.31.5.52,1.12.94,1.68,1.4.38.31.79.58,1.11.94.39.45.34.72-.09,1.13-.67.63-.85,1.37-.53,2.23.06.17.06.38.05.56-.03.7-.04,1.4-.11,2.09-.06.53.15.85.62,1,.44.14.5.42.41.81-.04.18-.05.38-.04.57.06,1.11.15,2.22.18,3.34.02.69-.28.9-.96.77-.99-.19-1.62.35-1.56,1.35.06.84.16,1.67.21,2.5.02.29-.04.59-.1.88-.11.55-.43.8-.99.81-1.06.02-1.94.95-1.69,1.99.45,1.83.61,3.78,1.74,5.38.41.58-.03,1.93-.72,2.21-.4.16-.72.04-.88-.31-.15-.32-.22-.7-.25-1.05-.1-1.37-.17-2.75-.26-4.12-.01-.19-.04-.4-.13-.55-.42-.71-.32-1.49-.27-2.25.02-.25.27-.52.46-.73.88-.98,1.14-2.13,1-3.41-.08-.73-.9-1.63-1.62-1.74-.15-.02-.37.13-.49.26-.55.58-1.04,1.22-1.62,1.77-.51.48-1.13.3-1.43-.35-.09-.21-.16-.43-.21-.65-.26-1.16-.96-2-1.91-2.65-.61-.41-.74-1.05-.74-1.69,0-.65.44-1.04,1.01-1.27.82-.34,1.71-.38,2.37.4.82.96,2.29,1.5,3.34.91.37-.2.75-.48.96-.83,1.11-1.83,1.37-3.81.86-5.89-.13-.54-.22-1.1-.34-1.64-.05-.2-.11-.4-.22-.58-.29-.51-.47-.54-1.02-.32-1.1.46-1.61,1.28-1.58,2.46.01.44,0,.89,0,1.45Z"/><path d="M62.42,74.31c-.84,0-1.59-.08-2.32.02-.96.13-1.16.65-.71,1.53.06.11.11.22.18.32.53.74.67,1.54.5,2.43-.13.66.14.94.81.96.21,0,.42,0,.63,0,.92.01,1.17.16,1.28,1.07.07.64-.02,1.32-.15,1.96-.2.96-.31,1.95-.83,2.85-.13.22,0,.7.17.97.46.75.56,1.54.55,2.4-.05,3.42-.04,6.85-.08,10.27-.01,1-.05,1.99.28,2.95.07.19.05.46-.04.65-.29.67-1.68,1.41-2.42,1.29-.17-.03-.36-.15-.46-.29-.2-.26-.41-.55-.49-.86-.23-.85-.8-1.47-1.4-2.04-1.07-1.02-1.58-2.24-1.7-3.71-.05-.61-.34-1.24-.65-1.79-.27-.47-.44-.9-.34-1.43.19-.98-.15-1.77-.78-2.5-.3-.35-.58-.75-.77-1.17-.27-.61.09-1.04.74-.99.03,0,.07,0,.1.01,1.6.18,2.46-.4,2.73-2.02.25-1.48.3-2.97-.43-4.35-.41-.76-.39-1.46-.09-2.29.48-1.35.43-2.74-.19-4.07-.27-.57-.16-.84.45-1,1.56-.39,1.29-.41,1.13-1.68-.11-.88.08-1.63.61-2.35.78-1.05,1.52-2.13,2.23-3.23.57-.86.84-1.83.84-2.87,0-.57.02-1.18.21-1.7.17-.48.57-.88.91-1.29.07-.09.32-.12.42-.07.09.05.14.26.14.4-.06,2.02-.11,4.05-.23,6.07-.04.7-.18,1.43-.44,2.07-.32.79-.46,1.56-.39,2.4.03.34,0,.69,0,1.07Z"/><path d="M64.41,53.13c.89.87,1.5,1.72,1.34,2.95-.07.52-.12,1.03-.59,1.4-.15.12-.17.4-.26.6-.16.37-.33.71-.85.54-.29-.09-.77-.09-.84-.27-.2-.5-.41-1.11-.31-1.6.17-.82.58-1.59.91-2.38.16-.39.37-.77.59-1.25Z"/><path d="M62.17,52.8c-.2-.54-.41-1.06-.58-1.59-.19-.63-.4-1.26.1-1.88.11-.13.07-.4.06-.6-.02-.28-.16-.56-.12-.82.05-.35.13-.9.34-.99.32-.13.82-.02,1.15.16.34.2.58.59.84.92.18.23.19.43-.13.58-.67.31-.88.91-.9,1.59-.02.54,0,1.08-.03,1.62-.02.43-.15.82-.74,1.01Z"/><path d="M53.29,27.68c-.32-.15-.55-.27-.79-.36-.92-.38-1.37-1.04-1.29-2.04.02-.28,0-.56-.03-.84-.06-.58-.25-1.07-.78-1.41-.56-.36-.81-.91-.81-1.56,0-.67.27-.93.93-.95.14,0,.28-.02.51-.03.07-.66.17-1.31.22-1.97.05-.68.42-1.12,1.1-1.25.62-.12,1.23-.24,1.85-.37.93-.2,1.58.35,1.54,1.29-.03.89-.05,1.78-.05,2.67,0,.22.06.45.13.66.15.45.42.67.95.53.45-.11.93-.11,1.4-.16.98-.09,1.68.35,2.19,1.15.52.82.78,1.72.75,2.68-.03.91.17,1.77.5,2.6.1.26.24.51.41.72.35.43.79.41,1.13-.04.27-.36.54-.73.8-1.1.21-.29.43-.28.71-.08.62.43.84.93.61,1.67-.24.77-.74,1.34-1.48,1.67-.91.42-1.89.69-2.62,1.47-.43.46-1.5-.1-1.58-.85-.11-1.02-.59-1.88-1.01-2.78-.35-.75-.59-1.56-.78-2.37-.27-1.2-1.21-1.84-2.02-2.59-.25-.23-.51-.07-.65.18-.42.72-.83,1.45-1.23,2.18-.22.41-.41.83-.62,1.26Z" style="fill:#fff;"/><path d="M42.7,70.37c.45-.31.8-.57,1.17-.79,1.21-.72,2.43-1.01,3.74-.18.39.25.87.34,1.3.55.9.43,1.48,1.1,1.52,2.14,0,.07,0,.14.01.21.16.76.14,1.4-.77,1.74-.6.23-1.12.65-1.68.98-.26.16-.46.08-.61-.17-.16-.27-.33-.53-.51-.79-.32-.46-.77-.6-1.22-.3-.53.35-1.06.73-1.51,1.17-.56.56-2.06.82-2.72.36-.17-.12-.26-.36-.37-.55-.44-.75-.87-1.5-1.3-2.25-.54-.93-1.1-1.85-1.64-2.79-.38-.67-.73-1.35-1.08-2.03-.41-.79-.85-1.56-1.21-2.37-.41-.94,0-1.53,1.01-1.57,1.46-.06,1.48-.06,2.07,1.28.9,2.04,2.32,3.71,3.81,5.36Z" style="fill:#fff;"/><path d="M49.8,55.64c-.11.65-.2,1.55-.41,2.43-.18.76-.72,1.21-1.53,1.29-.55.06-1.11.12-1.66.19-.34.04-.59-.1-.71-.4-.5-1.3-.89-2.62-.11-3.96.1-.18.21-.37.26-.57.09-.36.07-.67-.36-.85-.52-.22-.84-.62-1.02-1.19-.26-.84-.88-1.41-1.59-1.88-.59-.39-.99-.93-1.16-1.62-.16-.66-.13-1.29.43-1.78.58-.52,1.27-.5,1.97-.33.27.07.53.19.8.22,1.06.12,1.77.76,2.36,1.57.98,1.37,2.05,2.71,2.44,4.39.17.72.17,1.48.28,2.49Z" style="fill:#fff;"/><path d="M50.1,48.59c0-.07,0-.14,0-.21.13-1.03-.06-2-.51-2.93-.16-.34-.18-.74-.29-1.11-.3-.94-.58-1.89-.94-2.81-.21-.54-.17-.97.19-1.4,1.17-1.39,1.48-1.42,2.84-.24.35.31.73.6,1.07.93,1.07,1.01,1.3,2.29,1.24,3.69-.04.97-.02,1.95-.05,2.92-.03,1.04,0,2.1-.19,3.12-.12.63-.58,1.21-.94,1.77-.22.35-.48.33-.85.03-1.2-.99-1.99-2.1-1.55-3.75Z" style="fill:#fff;"/><path d="M45.61,33.26c0-.09,0-.17,0-.26.02-1.3.03-1.29,1.28-1.57.21-.05.39-.21.58-.32.28-.17.54-.4.84-.51.14-.05.45.07.52.2,1.06,1.83,1.44,3.83,1.48,5.91,0,.14,0,.28-.02.42-.07.57-.18,1.19-.78,1.37-.65.2-1.34.16-1.92-.35-.91-.79-1.39-1.83-1.73-2.94-.2-.62-.23-1.29-.34-1.95.03,0,.06,0,.09-.01Z" style="fill:#fff;"/><path d="M17.05,90.39c1.33,1.22,1.23,2.39.28,3.3-.81.79-1.72,1.17-2.83,1.07-.77-.07-1.16-.53-1.01-1.28.11-.55.33-1.09.59-1.6.21-.41.61-.66,1.09-.58.72.13,1.21-.15,1.62-.69.07-.09.18-.15.27-.22Z" style="fill:#fff;"/><path d="M17,97.72c-.14.16-.36.44-.62.67-.63.56-.79.54-1.31-.14-.07-.1-.14-.2-.21-.3-.52-.81-.32-1.4.6-1.73.07-.02.13-.05.2-.05.36,0,1.32.98,1.33,1.54Z" style="fill:#fff;"/></g></svg>