<?xml version="1.0" encoding="UTF-8"?>
<!DOCTYPE svg PUBLIC "-//W3C//DTD SVG 1.1//EN" "http://www.w3.org/Graphics/SVG/1.1/DTD/svg11.dtd">
<!-- Creator: CorelDRAW -->
<svg xmlns="http://www.w3.org/2000/svg" xml:space="preserve" width="38.1mm" height="38.1mm" version="1.1" style="shape-rendering:geometricPrecision; text-rendering:geometricPrecision; image-rendering:optimizeQuality; fill-rule:evenodd; clip-rule:evenodd"
viewBox="0 0 3810 3810"
 xmlns:xlink="http://www.w3.org/1999/xlink"
 xmlns:xodm="http://www.corel.com/coreldraw/odm/2003">
 <defs>
  <style type="text/css">
   <![CDATA[
    .fil0 {fill:none}
    .fil2 {fill:black;fill-rule:nonzero}
    .fil1 {fill:white;fill-rule:nonzero}
   ]]>
  </style>
 </defs>
 <g id="Layer_x0020_1">
  <metadata id="CorelCorpID_0Corel-Layer"/>
  <rect class="fil0" width="3810" height="3810"/>
  <g id="_1669928957840">
   <path class="fil1" d="M2115.22 1824.55c19.15,-6.35 23.47,-18.98 24.17,-33.22 0.82,-17.69 0.23,-35.44 0.82,-53.12 0.76,-22.35 7.77,-41.75 29.58,-52 10.49,-4.89 10.36,-11.47 4.34,-18.9 -8.6,-10.65 -16.3,-23.64 -27.6,-30.02 -10.65,-6.05 -27.31,-9.52 -37.65,-5.26 -7.18,2.98 -9.76,20.79 -11.27,32.4 -1.16,8.62 3.24,17.85 3.93,26.9 0.53,6.58 1.61,15.38 -1.88,19.64 -16.57,20.1 -9.66,40.83 -3.35,61.38 5.43,17.59 12.5,34.67 18.91,52.2zm73.59 10.74c-7.41,15.47 -14.05,27.9 -19.44,40.82 -10.75,25.76 -24.16,51.08 -29.85,77.95 -3.44,16.29 3.4,36.06 10.08,52.49 2.28,5.69 18.05,5.69 27.5,8.79 16.79,5.53 22.55,-5.68 27.77,-17.81 2.87,-6.71 3.63,-15.8 8.6,-19.77 15.2,-12.23 16.95,-28.72 19.26,-45.88 5.36,-40.09 -14.71,-68.09 -43.92,-96.59zm-65.35 693.23c0,-12.39 0.72,-23.76 -0.17,-34.96 -2.15,-27.28 2.34,-52.66 12.79,-78.45 8.59,-21.12 13.02,-44.92 14.38,-67.83 3.94,-66.14 5.46,-132.44 7.57,-198.69 0.16,-4.5 -1.42,-11.44 -4.43,-13.06 -3.44,-1.85 -11.53,-0.7 -13.88,2.18 -10.95,13.46 -24.1,26.65 -29.75,42.34 -6.22,17.23 -6.65,37.1 -6.78,55.8 -0.23,34.25 -9.02,65.79 -27.6,94.08 -23.53,35.8 -47.56,71.37 -73.22,105.68 -17.59,23.57 -23.57,48.06 -20.03,76.99 5.06,41.74 13.95,42.17 -37.09,55.06 -20.03,5.06 -23.54,13.96 -14.8,32.67 20.25,43.49 22.07,89.11 6.25,133.21 -9.76,27.14 -10.26,50.07 3.03,75.06 24.1,45.33 22.38,94.14 14.11,142.44 -9.05,52.96 -36.98,72.16 -89.51,66.11 -1.12,-0.13 -2.28,-0.33 -3.4,-0.39 -21.39,-1.72 -33.09,12.49 -24.36,32.29 6.12,13.88 15.17,26.97 25.18,38.47 20.69,23.84 31.81,49.78 25.49,81.78 -3.37,17.16 2.48,31.44 11.21,46.74 10.21,17.89 19.77,38.42 21.38,58.48 3.94,48.07 20.86,88.16 55.8,121.48 19.8,18.87 38.38,38.91 45.98,66.87 2.74,10.08 9.62,19.44 16.09,28.03 3.42,4.46 9.66,8.5 15.15,9.35 24.33,3.87 69.68,-20.1 79.33,-42.14 2.75,-6.22 3.4,-15.04 1.22,-21.36 -10.84,-31.63 -9.61,-63.96 -9.25,-96.65 1.35,-112.06 1.09,-224.15 2.71,-336.21 0.39,-28.26 -2.88,-54.07 -17.92,-78.73 -5.35,-8.79 -9.75,-24.5 -5.51,-31.77 16.95,-29.16 20.49,-61.61 27.13,-93.14 4.43,-20.86 7.31,-43.12 4.93,-64.04 -3.44,-30.08 -11.87,-34.84 -41.86,-35.16 -6.86,-0.07 -13.74,-0.11 -20.62,-0.28 -21.88,-0.46 -30.68,-9.68 -26.51,-31.29 5.62,-29.19 1,-55.54 -16.39,-79.7 -2.35,-3.21 -4.03,-6.91 -5.89,-10.45 -14.93,-28.76 -8.33,-45.88 23.14,-50.14 23.94,-3.24 48.63,-0.67 76.1,-0.67zm580.98 -724.1c0,-18.28 0.33,-32.82 -0.07,-47.34 -1.06,-38.71 15.93,-65.45 51.87,-80.52 17.87,-7.47 23.66,-6.41 33.28,10.31 3.34,5.82 5.62,12.49 7.11,19.07 4,17.82 6.74,35.93 11.07,53.69 16.63,68.16 8.19,132.88 -28.1,192.91 -6.87,11.34 -19.6,20.49 -31.56,27.14 -34.68,19.2 -82.65,1.58 -109.65,-29.92 -21.65,-25.32 -50.83,-24.09 -77.81,-13.03 -18.78,7.71 -33.29,20.5 -33.19,41.65 0.07,21.13 4.43,41.89 24.36,55.45 31.31,21.27 54.14,48.92 62.68,86.79 1.61,7.21 3.79,14.42 6.84,21.16 9.58,21.26 29.91,27.24 46.77,11.4 19.04,-17.88 35.14,-38.9 53.15,-57.94 4,-4.27 11.14,-9.22 16.01,-8.5 23.6,3.61 50.41,32.9 53.11,56.86 4.7,41.64 -3.93,79.4 -32.75,111.49 -6.32,7.01 -14.52,15.61 -15.04,23.9 -1.56,24.79 -5,50.35 8.85,73.72 3.05,5.08 3.81,12 4.2,18.15 2.94,44.98 5.13,90.03 8.5,135.03 0.86,11.66 3.33,23.86 8.13,34.47 5.22,11.64 15.7,15.57 28.79,10.28 22.64,-9.12 37.09,-53.28 23.7,-72.23 -37.02,-52.49 -42.31,-116.22 -56.96,-176.18 -8.26,-34.01 20.79,-64.29 55.41,-65.08 18.17,-0.44 28.66,-8.6 32.36,-26.58 1.95,-9.45 3.83,-19.34 3.27,-28.86 -1.65,-27.34 -5.02,-54.58 -6.88,-81.91 -2.21,-32.65 18.61,-50.41 50.98,-44.26 22.37,4.3 32.09,-2.35 31.46,-25.02 -1.02,-36.46 -4.06,-72.89 -6.01,-109.32 -0.33,-6.18 -0.2,-12.62 1.19,-18.61 2.98,-12.89 1.12,-21.92 -13.42,-26.51 -15.41,-4.82 -22.25,-15.34 -20.26,-32.73 2.58,-22.7 2.87,-45.64 3.77,-68.52 0.22,-6.15 0.26,-12.79 -1.76,-18.41 -10.25,-28.42 -4.6,-52.52 17.49,-73.18 14.24,-13.29 15.86,-21.96 2.97,-36.83 -10.31,-11.87 -24.03,-20.75 -36.33,-30.87 -18.44,-15.17 -38.67,-28.66 -55.07,-45.81 -22.77,-23.8 -42.01,-50.91 -64.02,-75.51 -15.47,-17.28 -21.81,-16.96 -41.59,-4.99 -22.41,13.56 -46.21,22.41 -73.08,20.23 -29.52,-2.45 -59.04,-5.88 -88.62,-6.28 -11.71,-0.17 -24.6,4.67 -35.01,10.65 -18.28,10.54 -35.14,23.53 -52.39,35.8 -11.07,7.86 -19.77,4.92 -28.66,-4.04 -14.58,-14.61 -9.82,-29.28 0,-42.97 10.61,-14.84 11.9,-27.63 1.02,-43.56 -13.98,-20.5 -14.78,-41.86 0.99,-63.57 13.26,-18.18 17.33,-40.3 13.39,-62.18 -1.68,-9.49 -9.28,-23.9 -16.29,-25.22 -18.41,-3.51 -38.75,-4.26 -56.75,0.2 -10.82,2.68 -18.56,5.12 -27.97,-1.03 -6.22,-4.02 -13.36,-6.7 -19.37,-11.01 -8.24,-5.88 -14.58,-4.82 -23.02,0.76 -29.38,19.38 -32.28,48.57 -29.38,78.97 2.31,24.37 5.79,49.06 12.63,72.46 10.51,35.9 22.35,71.73 37.48,105.88 11.94,27.01 35.27,42.84 66.38,44.52 29.12,1.59 58.35,2.72 87.34,5.73 15.33,1.58 25.25,-3.14 35.66,-14.32 14.97,-16.1 32.63,-29.71 46.71,-42.21 24.19,15.37 46.5,27.1 65.84,42.57 13.19,10.55 24.4,25.13 32.5,40.07 7.14,13.16 3.74,27.74 -9.63,38.17 -16.23,12.7 -31.53,26.59 -48.16,38.71 -19.86,14.49 -42.3,21.59 -67.42,21.26 -41.79,-0.6 -83.64,-0.49 -125.42,0.53 -12.27,0.3 -25.32,2.81 -36.49,7.76 -24.96,11.04 -40.33,31.44 -47.01,57.72 -1.84,7.21 -3.37,17.85 9.91,16.43 26.46,-2.88 46.85,6.61 66.25,24.62 15.11,14.05 27.2,28.43 27.07,49.09 -0.16,29.65 21.76,39.04 42.62,49.59 3.46,1.75 9.95,1.61 13.05,-0.53 19.01,-13.09 33.95,-29.69 42.74,-52.36 -4.56,-2.19 -7.47,-3.97 -10.61,-4.96 -21.98,-7.08 -29.49,-15.37 -30.15,-33.62 -1.16,-32.79 4.79,-42.15 27.81,-52.29 21.21,-9.39 41.87,-20.33 61.87,-32.07 11.7,-6.87 21.62,-16.72 35.01,-27.33 25.91,23 52.26,46.37 82.31,73.02zm-749.7 -237.77c-16.7,7.5 -29.62,13.25 -42.51,19.1 -31.53,14.32 -58.64,-5.39 -55.56,-40.38 2.21,-25.07 6.21,-50.09 6.34,-75.14 0.13,-29.56 0.33,-59.9 -6.11,-88.43 -3.8,-16.72 -11.18,-31.73 -5.1,-49.09 3.77,-10.77 -0.69,-15.82 -11.56,-17.57 -14.08,-2.32 -28.3,-4.61 -41.99,-8.5 -32.69,-9.26 -61.9,-48.99 -56.32,-81.81 5.95,-35.01 1.09,-66.81 -14.48,-97.92 -2.78,-5.55 -4.73,-11.69 -5.92,-17.81 -0.93,-4.66 -0.06,-9.69 0.04,-14.54 4.85,0.29 10.48,-0.83 14.44,1.19 19.04,9.71 36.26,6.4 53.15,-5.1 6.62,-4.49 13.85,-7.99 20.73,-12.1 8.93,-5.28 13.39,-1.82 19.14,6.32 15.04,21.22 31.8,41.22 47.74,61.81 4.48,5.78 9.61,11.34 12.65,17.85 9.79,21.06 20.53,40.4 43.73,50.37 9.63,4.17 17.69,12.6 25.53,20.07 3.79,3.64 6.93,9.29 7.77,14.48 8.85,54.01 18.7,107.86 16.25,163.23 -0.65,15.4 5.46,31.27 9.56,46.6 1.88,7.18 6.67,12.44 15.27,6.15 17.16,-12.56 22.61,-39.69 10.78,-57.38 -10.28,-15.3 -11.7,-30.25 -1.73,-46.35 6.62,-10.67 11.9,-22.14 17.83,-33.21 13.18,-24.77 14.57,-47.97 -4.27,-71.66 -16.16,-20.34 -11.67,-39.57 8.99,-54.35 8.3,-5.95 13.89,-5.69 19.04,4.13 5.82,11.04 12.79,21.52 19.73,31.93 8.27,12.36 19.77,13.79 31.2,5.79 14.49,-10.11 27.48,-22.31 41.86,-32.56 8.55,-6.09 18.27,-13.53 28.03,-14.48 23.34,-2.21 34.48,-15.67 40.16,-35.8 2.65,-9.25 1.81,-19.8 5.72,-28.29 2.91,-6.38 10.11,-12.17 16.79,-15.01 5.02,-2.12 12.2,0.76 18.41,1.58 19.57,2.61 35.3,-15.63 26.84,-33.02 -5.85,-12.03 -14.87,-22.84 -23.76,-33.06 -29.45,-33.74 -63.47,-64.45 -54.65,-116.94 2.03,-11.97 -2.34,-29.85 -10.67,-37.92 -28.26,-27.27 -43.43,-60.68 -57.16,-96.19 -3.99,-10.34 -18.34,-24.33 -27,-23.7 -23.27,1.62 -39.56,-9.06 -49.35,-25.06 -21.29,-34.84 -38.65,-72.05 -57.52,-108.32 -0.76,-1.45 -0.86,-3.33 -0.93,-5.06 -1.88,-39.86 -4.26,-79.69 -5.21,-119.59 -0.37,-14.88 -2.71,-26.15 -18.09,-32.88 -9.72,-4.31 -18.11,-11.9 -26.61,-18.69 -14.74,-11.77 -16.1,-23.8 -7.9,-40.66 9.69,-19.9 17.55,-40.65 26.81,-60.78 1.85,-4.04 5.95,-9.26 9.69,-9.88 43.2,-7.08 71.76,-35.27 99.1,-66.05 20.49,-23.07 42.14,-45.12 63.46,-67.47 14.12,-14.8 29.95,-16.89 49.95,-10.74 60.16,18.48 106,57.65 150,99.73 26.84,25.68 50.81,54.8 79.9,77.48 24.69,19.27 54.81,31.61 82.64,46.84 14.84,8.1 32.59,12.99 44.33,24.23 35.43,34.04 67.83,71.27 103.12,105.44 8.76,8.46 23.91,10.82 36.5,14.69 7.4,2.27 18.35,-0.84 22.97,3.5 21.92,20.49 47.3,39.79 61.98,65.02 23.77,40.89 52.26,74.3 94.48,95.83 6.54,3.3 12.95,7.63 18.15,12.75 45.64,44.93 93.38,87.93 128.94,142.04 11.37,17.29 22.84,33.92 23.24,55.97 0.13,8.16 2.94,17.81 7.93,24.06 23.11,28.92 44.1,60.88 72.16,84.16 31.7,26.27 63,52.16 91.99,81.74 68.46,69.78 138.11,138.6 210.27,204.49 30.18,27.56 42.08,59.99 41.84,96.62 -0.26,36.92 15.21,58.57 47.97,70.04 56.62,19.84 98.44,59.37 136.98,102.84 7.44,8.35 12.96,21.05 13.72,32.13 1.65,23.47 8.6,38.73 34.65,42.43 15.43,2.22 24.12,0.34 28.78,-14.61 1.82,-5.81 1.88,-12.35 1.88,-18.57 0.14,-517.88 0.07,-1035.76 0.54,-1553.6 0,-15.9 -5.52,-18.78 -19.84,-18.74 -123.16,0.19 -246.33,-0.26 -369.46,-0.6 -1080.38,-2.91 -2160.72,-5.82 -3241.07,-8.73 -27.21,-0.06 -27.24,0.03 -27.24,26.02 -0.03,1202.82 -0.03,2405.64 -0.03,3608.46 0,5.97 0,11.96 0,18.7 11.5,0 20.06,0 28.62,0 1017.98,0 2035.92,-0.07 3053.89,0.5 22.54,0 36.13,-7.54 47.3,-26.18 7.8,-13.09 5.06,-20 -7.6,-25.09 -15.58,-6.29 -28.99,-14.41 -39.57,-28.43 -4,-5.32 -15.87,-6.87 -23.97,-6.51 -38.21,1.78 -76.36,6.64 -114.5,6.48 -13.85,-0.07 -30.28,-8.1 -40.86,-17.66 -14.57,-13.18 -29.25,-18.11 -48.06,-17.08 -21.45,1.19 -43.47,3.77 -64.42,0.42 -58.05,-9.18 -59.01,-23.93 -52.86,-70.5 1.39,-10.61 0.2,-21.55 0.2,-32.36 -1.56,-0.33 -3.08,-0.69 -4.63,-1.02 -13.65,21.38 -27.24,42.86 -41.09,64.15 -5.55,8.57 -10.97,17.42 -17.98,24.69 -3.18,3.25 -10.71,5.06 -15.17,3.77 -15.87,-4.59 -32.53,-8.66 -46.54,-16.92 -18.97,-11.17 -35.67,-7.1 -48.4,6.01 -19.86,20.53 -44.26,20.43 -69.28,22.78 -23.73,2.21 -47.66,5.02 -70.84,10.45 -38.54,9.05 -87.23,-27.57 -85.81,-66.12 0.23,-5.68 0.07,-11.5 -0.96,-17.05 -2.58,-14.34 -11.6,-18.28 -20.76,-7.34 -12.2,14.64 -23.63,30.84 -31.3,48.19 -12.83,29.03 -33.41,46.78 -64.49,49.23 -24.59,1.92 -49.55,-0.93 -74.31,-0.44 -38.6,0.76 -77.18,2.29 -115.73,4.24 -7.14,0.37 -13.98,5.32 -21.18,6.24 -9.29,1.19 -18.81,0.93 -28.2,0.47 -7.57,-0.39 -15.01,-2.35 -22.58,-3.07 -18.44,-1.86 -36.76,2.4 -54.54,3.37 -103.36,5.55 -207,6.37 -310.55,8.26 -22.12,0.42 -43.9,-1.75 -56.1,-25.09 -1.95,-3.7 -6.41,-6.88 -10.44,-8.59 -35.54,-15.11 -66.01,-40.07 -109.12,-39.68 -57.12,0.54 -114.21,-5.02 -170.87,7.35 -9.18,2.02 -19.3,0.98 -28.82,-0.1 -22.64,-2.58 -45.15,-8.14 -67.79,-8.59 -27.11,-0.57 -44.39,14.43 -53.65,39.86 -4.1,11.2 -9.13,22.08 -13.95,33.03 -5.35,12.16 -13.85,15.76 -26.28,9.74 -21.61,-10.45 -43.24,-20.86 -65.22,-30.44 -6.35,-2.78 -14.38,-4.93 -20.86,-3.6 -32.46,6.51 -62.64,4.39 -91.66,-14.02 -13.56,-8.59 -29.98,-12.85 -45.45,-18.15 -18.18,-6.25 -36.59,-11.86 -55.11,-16.96 -6.04,-1.65 -16.98,-3.23 -18.44,-0.69 -10.38,17.95 -22.61,10.05 -35,4.3 -32.76,-15.14 -65.72,-27.34 -101.95,-10.68 -2.97,1.39 -7.6,-0.76 -11.43,-1.35 -10.02,-1.62 -20.01,-4.37 -30.02,-4.7 -22.31,-0.66 -45.16,2.75 -66.87,-0.89 -22.58,-3.74 -44.93,-11.97 -65.81,-21.59 -24.63,-11.37 -47.08,-27.43 -71.5,-39.3 -11.37,-5.52 -25.13,-7.67 -37.98,-8.4 -43.94,-2.54 -87.89,-4.46 -131.89,-5.25 -53.02,-0.99 -91.6,-25.22 -117.58,-70.31 -3.54,-6.12 -6.68,-17.82 -3.57,-21.55 17.92,-21.46 35.77,-43.96 57.95,-60.32 9.41,-6.95 29.29,0.22 44.42,1.02 2.29,0.13 4.69,0.06 6.81,0.76 25.72,8.29 43.04,-8.16 62.11,-20.34 9.16,-5.8 19.07,-11.96 29.42,-14.07 27.1,-5.53 55.73,-4.37 79.83,-21.98 3.94,-2.92 13.78,-1.88 18.45,1.12 23.4,15.14 46.87,30.51 68.42,48.06 8.23,6.71 12.85,18.98 16.72,29.55 4.31,11.64 4.66,24.73 8.93,36.4 5.68,15.64 15.93,19.8 29.39,10.15 8.92,-6.39 15.83,-17.33 20.39,-27.64 5.72,-12.89 9.58,-22.84 26.81,-26.11 31.64,-6.02 51.03,-29.12 65.42,-54.87 -16.83,-11.7 -32.86,-20.73 -46.32,-32.67 -30.84,-27.33 -31.16,-65.47 -1.74,-93.41 22.37,-21.26 45.35,-41.94 68.16,-62.8 20.49,-18.74 20.53,-18.68 -0.57,-37.19 -31.43,-27.63 -38.77,-54.01 -21.68,-84.26 5.48,-9.75 13.12,-19.34 22.08,-25.85 21.42,-15.53 37.45,-34.84 48.33,-58.61 6.94,-15.2 17.29,-14.91 30.9,-9.28 17.89,7.4 36.07,14.9 54.84,18.9 9.29,1.95 23.07,-0.79 29.75,-6.94 10.45,-9.61 20.79,-13.15 33.85,-11.83 15.1,1.51 24.99,-5.06 35.11,-16.4 19.66,-22.01 41.61,-42.01 62.93,-62.54 3.14,-3.04 7.71,-5.32 12,-6.31 21.59,-4.89 28.92,-19.3 30.11,-40 0.63,-11.07 2.36,-23.7 8.2,-32.53 12.2,-18.3 27.44,-34.57 41.52,-51.79 40.29,19.7 50.18,17.22 74.15,-22.18 24.49,-40.23 69.74,-32.69 87.22,0.52 10.06,19.11 16.03,41.62 18.28,63.18 3.08,29.45 1,59.43 0.9,89.18 -0.3,106.37 -0.17,212.75 -1.33,319.09 -0.46,43.75 -7,87.09 14.06,129.27 26.74,53.55 48.79,109.42 75.03,163.23 11.57,23.67 43.27,28.13 64.06,12.49 8.27,-6.21 16.43,-12.49 24.2,-19.26 8.82,-7.74 16.55,-7.05 26.05,-0.41 22.63,15.9 39.36,35.94 50.21,61.59 2.51,5.98 11.4,9.68 18.05,13.19 1.41,0.75 8.59,-4.92 8.22,-6.02 -2.11,-6.38 -5.58,-12.36 -8.85,-18.35 -0.8,-1.38 -2.94,-1.97 -3.8,-3.37 -8.2,-13.29 -6.98,-27.7 2.61,-38.01 5.61,-6.09 18.84,-9.88 27,-7.9 21.79,5.29 30.41,33.92 17.06,52.59 -5.92,8.27 -9.92,14.74 -1.06,23.7 8.76,8.82 14.51,20.2 31.07,12.96 15.51,-6.74 32.63,-9.65 48.72,-15.11 3.38,-1.12 7.18,-5.62 7.87,-9.15 5.59,-27.74 22.01,-47.3 42.95,-65.58 34.04,-29.86 33.11,-31.24 -4.3,-56.9 -43.77,-30.01 -47.47,-40.59 -32.13,-91.82 0.17,-0.57 0.19,-1.16 0.43,-1.65 7.4,-16.47 10.94,-32.43 -3.77,-47.37 -2.42,-2.48 -2.74,-7.37 -3.21,-11.24 -2.84,-23.63 6.22,-42.24 24,-57.45 23.53,-20.16 23.63,-24.6 7.04,-49.59 -8.86,-13.28 -15.86,-27.76 -23.76,-41.65 -13.43,-23.63 -5.73,-44.95 9.71,-63.2 14.85,-17.58 35.24,-22.28 57.65,-14.87 14.97,4.96 29.92,9.88 45.58,15.04 1.65,-4.96 2.62,-8.13 3.81,-11.2 10.54,-28.04 16.19,-57.88 37.38,-81.66 13.03,-14.54 13.38,-33.34 4.96,-51.66 -13.62,-29.58 -27.34,-59.1 -40.37,-88.91 -3.79,-8.76 -7.86,-18.62 -7.57,-27.78 1.36,-37.15 3.44,-74.3 7.01,-111.29 2.68,-27.53 12.03,-54.05 6.19,-82.94 -2.25,-11.04 6.48,-24.43 10.74,-36.59 3.84,-11.04 10.38,-21.55 12.23,-32.86 3.9,-23.93 8.5,-47.23 23.11,-67.36 20.16,-27.84 17.68,-55.64 2.71,-85.39 -7.97,-15.83 -12.83,-34.21 -14.68,-51.89 -3.63,-34.71 -11.14,-42.38 -46.6,-39.61 -21.66,1.73 -43.31,4.8 -64.93,4.67 -36,-0.2 -80.62,-46.45 -48.06,-91.73 10.94,-15.24 22.9,-30.47 37.09,-42.58 30.34,-25.84 61.45,-51.09 94.21,-73.7 16.85,-11.64 22.87,-6.66 24.36,13.81 1.36,18.24 1.32,36.62 3.33,54.77 1.82,16.36 5.59,32.49 8.5,48.73 2.81,0.52 5.65,1.05 8.46,1.54 6.84,-11.86 17.55,-23.06 19.67,-35.72 3.74,-22.22 3.24,-45.39 2.58,-68.1 -0.93,-33.09 -8.86,-66.91 -4.23,-99.04 6.61,-46.17 15.83,-94.01 69.81,-114.2 23.6,-8.83 30.02,-29.68 17.22,-44.96 -23.7,-28.29 -20.06,-61.41 -19,-94.33 0.46,-14.02 2.47,-28.43 -0.07,-41.95 -5.32,-28.23 -11.2,-55.96 3.57,-86.54zm1782.51 1509.31l0 671.91 -3676.61 0c0,-1224.96 0,-2449.93 0,-3674.89 1225.52,0 2451.08,0 3676.61,0 0,933.58 0,1867.16 0,2800.71 -5.56,-0.89 -11.37,-0.96 -16.56,-2.84 -33.62,-12.2 -67.33,-24.17 -100.43,-37.72 -10.17,-4.16 -19.43,-12.03 -27.33,-20 -14.88,-14.94 -13.72,-25.97 1.72,-40.59 3.73,-3.53 6.74,-7.83 12.03,-14.08 -29.42,-3.11 -45.85,-20.59 -49.36,-42.77 -6.21,-39.77 -15.26,-80.89 3.98,-120.29 25.64,-52.6 22.77,-109.91 27.04,-165.97 1.02,-13.59 -5.43,-19.21 -20.66,-19.97 -25.98,-1.32 -52.1,-5.15 -77.52,-10.8 -10.25,-2.29 -16.76,-3.41 -26.11,2.97 -32.26,21.95 -78.41,17.75 -99.27,-10.78 -15.73,-21.55 -36.03,-19.47 -57.64,-20.23 -10.52,-0.36 -23.04,-2.61 -30.88,-8.79 -23.7,-18.71 -45.41,-39.93 -68.26,-59.8 -4.99,-4.33 -11.21,-9.91 -17.09,-10.18 -45.58,-1.98 -78.84,-26.71 -110.14,-56.39 -5.55,-5.26 -15.14,-9.49 -22.54,-9.02 -16.66,1.05 -28.03,-6.52 -39.61,-16.53 -5.68,-5 -12.98,-9.95 -20.16,-11.01 -14.05,-2.05 -28.89,-3.6 -42.64,-1.09 -13.25,2.41 -27.27,7.96 -37.91,16.06 -21.03,15.97 -25.36,40.8 -23.54,65.06 3.54,47.76 9.39,95.33 14.55,142.96 2.11,19.54 4.89,39 7.36,58.58 29.06,-5.33 47.21,-24.67 48.53,-57.06 1.75,-42.41 26.15,-70.57 54.44,-97.12 10.25,-9.58 21.85,-9.58 32.1,0.34 6.08,5.88 11.64,12.59 16.36,19.67 11.31,17.01 21.79,34.64 33,51.76 19.63,29.88 24.92,94.11 -16.23,114.1 -9.89,4.8 -17.72,14.32 -25.72,22.45 -20.2,20.56 -22.38,37.92 -9.69,63.5 5.82,11.63 13.52,23.37 15.31,35.8 5.98,41.45 5.12,41.55 45.41,53.31 8.2,2.42 16.56,4.44 24.46,7.68 5.03,2.04 9.39,5.87 13.82,9.22 11.7,8.79 22.09,20.36 35.07,26.18 41.48,18.54 74.18,49.01 108.39,77.18 34.18,28.19 64.56,61.19 99.82,87.8 19.21,14.51 44.5,25.45 68.2,28.23 20.59,2.41 36.82,7.9 52.13,20.13 8.46,6.77 16.76,13.88 25.78,19.86 51.8,34.31 103.27,69.15 156.06,101.88 12.13,7.51 29.02,7.23 43.73,10.58z"/>
   <path class="fil2" d="M3754.57 3068.35c-14.87,-3.36 -31.96,-3.14 -44.2,-10.71 -53.38,-33.09 -105.41,-68.33 -157.77,-103.03 -9.09,-6.05 -17.48,-13.22 -26.05,-20.06 -15.49,-12.4 -31.85,-17.96 -52.68,-20.4 -23.96,-2.81 -49.52,-13.88 -68.96,-28.52 -35.63,-26.94 -66.34,-60.3 -100.88,-88.79 -34.58,-28.5 -67.67,-59.31 -109.58,-78.08 -13.13,-5.85 -23.63,-17.58 -35.44,-26.48 -4.49,-3.37 -8.92,-7.24 -13.98,-9.32 -7.96,-3.27 -16.42,-5.28 -24.72,-7.73 -40.72,-11.9 -39.83,-12.04 -45.92,-53.95 -1.79,-12.56 -9.58,-24.43 -15.47,-36.2 -12.82,-25.88 -10.6,-43.43 9.82,-64.22 8.07,-8.2 16,-17.82 25.99,-22.68 41.61,-20.23 36.22,-85.18 16.39,-115.4 -11.34,-17.31 -21.92,-35.13 -33.35,-52.38 -4.76,-7.14 -10.38,-13.92 -16.53,-19.87 -10.38,-10.02 -22.11,-10.02 -32.46,-0.34 -28.6,26.85 -53.26,55.34 -55.04,98.21 -1.32,32.8 -19.67,52.33 -49.02,57.68 -2.51,-19.76 -5.32,-39.43 -7.44,-59.2 -5.22,-48.16 -11.13,-96.28 -14.74,-144.58 -1.82,-24.56 2.55,-49.65 23.8,-65.78 10.77,-8.23 24.92,-13.81 38.34,-16.26 13.89,-2.55 28.9,-0.97 43.11,1.12 7.24,1.03 14.61,6.09 20.39,11.11 11.67,10.15 23.17,17.78 40.03,16.72 7.48,-0.46 17.13,3.81 22.74,9.13 31.67,30.01 65.29,55 111.36,57.02 5.93,0.26 12.24,5.91 17.3,10.31 23.03,20.1 45.01,41.52 68.98,60.46 7.9,6.25 20.6,8.52 31.2,8.89 21.86,0.8 42.39,-1.32 58.29,20.46 21.05,28.85 67.72,33.09 100.31,10.87 9.46,-6.41 16.03,-5.28 26.39,-2.97 25.71,5.72 52.09,9.59 78.37,10.91 15.4,0.8 21.92,6.45 20.89,20.19 -4.3,56.73 -1.39,114.67 -27.34,167.86 -19.47,39.87 -10.31,81.41 -4,121.65 3.54,22.44 20.17,40.12 49.89,43.27 -5.36,6.3 -8.4,10.67 -12.17,14.24 -15.61,14.74 -16.76,25.95 -1.76,41.06 8.01,8.03 17.37,16 27.67,20.23 33.43,13.68 67.53,25.78 101.48,38.15 5.26,1.88 11.18,1.94 16.76,2.86l0 204.55z"/>
   <path class="fil2" d="M620.91 3305.82c-0.33,-18.41 -32.03,-51.03 -43.86,-50.94 -2.25,0.04 -4.54,0.86 -6.72,1.62 -30.38,10.97 -37.05,30.18 -19.83,57.09 2.19,3.4 4.33,6.8 6.78,10.02 17.02,22.21 22.37,23.03 43.23,4.46 8.6,-7.64 15.64,-16.99 20.4,-22.25zm1.78 -242.3c-2.97,2.35 -6.64,4.31 -8.96,7.34 -13.48,17.85 -29.75,27.34 -53.41,22.91 -15.77,-2.94 -29.18,5.45 -36,19.04 -8.36,16.73 -15.93,34.64 -19.44,52.89 -4.79,24.96 8.2,40.13 33.53,42.34 36.59,3.18 66.7,-9.38 93.6,-35.34 31.37,-30.27 34.51,-68.98 -9.32,-109.18zm943.83 -1888.71c-0.95,0.13 -1.92,0.26 -2.87,0.43 3.5,21.49 4.63,43.73 11.11,64.29 11.43,36.39 27.37,70.94 57.28,97.05 19.17,16.69 42.04,18.01 63.6,11.5 19.83,-5.98 23.5,-26.64 25.85,-45.44 0.56,-4.57 0.86,-9.2 0.75,-13.79 -1.48,-68.89 -14.11,-135.07 -49.05,-195.43 -2.51,-4.33 -12.72,-8.16 -17.25,-6.51 -9.99,3.64 -18.54,11.08 -27.8,16.73 -6.28,3.84 -12.37,9.16 -19.21,10.68 -41.52,9.19 -41.58,8.89 -42.41,51.83 -0.02,2.87 0,5.75 0,8.66zm148.66 506.74c-14.52,54.51 11.69,91.33 51.37,124.02 12.16,9.98 20.82,10.54 28.19,-0.89 11.99,-18.64 27.14,-37.72 31.11,-58.51 6.37,-33.59 5.25,-68.66 6.37,-103.1 1.06,-32.2 0.1,-64.46 1.56,-96.59 2.14,-46.21 -5.52,-88.71 -40.96,-121.94 -11.34,-10.67 -23.6,-20.36 -35.34,-30.61 -44.78,-39.13 -55.19,-38.21 -93.84,7.84 -12,14.28 -13.25,28.52 -6.25,46.34 12.01,30.38 21.32,61.85 31.24,93.02 3.84,12.03 4.36,25.42 9.75,36.55 14.88,30.94 21.19,62.88 16.83,96.93 -0.3,2.27 -0.03,4.63 -0.03,6.94zm-10.05 233.14c-3.57,-33.22 -3.74,-58.34 -9.33,-82.25 -13.05,-55.73 -48.29,-99.93 -80.81,-145.21 -19.37,-26.97 -42.98,-47.96 -78.05,-51.96 -8.99,-1.03 -17.58,-4.99 -26.48,-7.18 -23.21,-5.71 -45.84,-6.31 -65.15,10.82 -18.28,16.23 -19.23,37.19 -14.05,58.96 5.46,22.82 18.64,40.43 38.28,53.42 23.53,15.57 44.06,34.42 52.65,62.01 5.82,18.62 16.44,31.87 33.6,39.18 14.14,6.08 14.9,16.33 11.83,28.26 -1.69,6.55 -5.23,12.76 -8.67,18.71 -25.77,44.46 -12.92,87.8 3.74,130.93 3.94,10.21 12.07,14.81 23.44,13.36 18.28,-2.32 36.59,-4.5 54.9,-6.35 26.68,-2.68 44.69,-17.25 50.64,-42.54 6.77,-28.86 9.99,-58.58 13.46,-80.16zm-234.83 486.81c-49.41,-54.55 -96.06,-109.69 -125.98,-177.15 -19.66,-44.36 -20.02,-44.19 -68.42,-42.35 -33.51,1.3 -47.01,20.9 -33.38,51.8 11.77,26.78 26.31,52.33 39.83,78.31 11.73,22.45 23.24,45.02 35.77,67.04 17.58,30.94 36.09,61.34 54.04,92.09 14.48,24.76 28.63,49.65 43.1,74.4 3.7,6.36 6.65,14.28 12.23,18.22 21.82,15.21 71.4,6.55 89.94,-11.84 14.88,-14.71 32.2,-27.36 49.79,-38.8 15.14,-9.85 30.01,-5.09 40.43,9.98 5.91,8.53 11.43,17.32 16.86,26.15 5.12,8.33 11.6,10.81 20.25,5.62 18.48,-11.01 35.81,-25.02 55.61,-32.5 30.11,-11.34 30.77,-32.26 25.61,-57.51 -0.46,-2.25 -0.33,-4.59 -0.39,-6.91 -1.43,-34.44 -20.4,-56.66 -50.21,-70.7 -14.02,-6.65 -30.05,-9.82 -42.95,-18.02 -43.06,-27.47 -83.56,-17.95 -123.52,5.95 -12.33,7.37 -23.83,16.1 -38.61,26.22zm350.19 -1411.14c7.04,-14.28 13.32,-28.26 20.66,-41.69 13.18,-24.23 26.77,-48.25 40.72,-72.05 4.86,-8.27 13.22,-13.69 21.59,-5.99 26.87,24.69 57.75,45.89 66.71,85.52 6.08,26.77 13.98,53.78 25.68,78.48 14.08,29.74 29.92,57.97 33.49,91.82 2.64,24.72 38.14,43.23 52.36,28.03 24.12,-25.78 56.28,-34.91 86.53,-48.66 24.27,-11.04 41.02,-29.91 48.89,-55.27 7.64,-24.69 0.43,-40.95 -20.1,-55.34 -9.32,-6.51 -16.66,-6.86 -23.6,2.59 -8.85,12.1 -17.48,24.36 -26.57,36.26 -11.25,14.81 -25.79,15.63 -37.43,1.32 -5.71,-7.04 -10.17,-15.47 -13.48,-23.96 -10.81,-27.54 -17.39,-55.77 -16.53,-85.92 0.93,-31.76 -7.87,-61.64 -24.95,-88.71 -16.73,-26.55 -39.97,-41.09 -72.33,-37.95 -15.51,1.52 -31.44,1.49 -46.34,5.28 -17.62,4.47 -26.48,-2.67 -31.57,-17.68 -2.35,-7.01 -4.43,-14.54 -4.4,-21.85 0.1,-29.42 0.73,-58.87 1.78,-88.26 1.13,-30.94 -20.32,-48.98 -51.03,-42.51 -20.3,4.27 -40.66,8.27 -61.02,12.2 -22.51,4.3 -34.71,18.85 -36.43,41.48 -1.65,21.76 -4.72,43.44 -7.17,65.23 -7.64,0.46 -12.2,0.92 -16.76,0.98 -22.08,0.43 -31.1,9 -30.88,31.31 0.24,21.42 8.46,39.67 26.88,51.47 17.32,11.14 23.8,27.5 25.61,46.6 0.87,9.2 1.62,18.52 0.97,27.67 -2.38,33.26 12.49,55.11 42.77,67.57 7.9,3.27 15.54,7.17 25.95,12.03zm131.53 570.2c-14.91,30.84 -8.96,58.88 -3.6,87.37 2.57,13.65 0.55,28.23 0.09,42.38 -1.06,33.25 -4.72,66.67 19.14,95.23 12.93,15.44 6.48,36.49 -17.32,45.42 -54.48,20.39 -63.76,68.65 -70.44,115.33 -4.66,32.42 3.3,66.57 4.27,99.99 0.65,22.94 1.15,46.31 -2.59,68.76 -2.14,12.76 -12.96,24.09 -19.86,36.06 -2.84,-0.5 -5.69,-1.03 -8.53,-1.55 -2.94,-16.4 -6.75,-32.7 -8.56,-49.23 -2.05,-18.3 -2.02,-36.89 -3.38,-55.3 -1.51,-20.62 -7.56,-25.68 -24.56,-13.95 -33.04,22.84 -64.41,48.33 -95.03,74.45 -14.31,12.2 -26.37,27.56 -37.41,42.97 -32.83,45.71 12.16,92.45 48.45,92.65 21.85,0.1 43.67,-3.01 65.52,-4.73 35.76,-2.81 43.33,4.93 47.01,39.97 1.84,17.89 6.77,36.43 14.8,52.42 15.11,30.05 17.59,58.12 -2.74,86.22 -14.74,20.32 -19.37,43.86 -23.31,68.02 -1.88,11.41 -8.46,22.01 -12.36,33.19 -4.26,12.26 -13.06,25.82 -10.81,36.96 5.88,29.15 -3.53,55.89 -6.21,83.72 -3.6,37.36 -5.72,74.87 -7.08,112.35 -0.32,9.3 3.77,19.21 7.64,28.04 13.13,30.14 26.98,59.96 40.69,89.81 8.53,18.48 8.14,37.48 -4.99,52.19 -21.38,23.97 -27.07,54.11 -37.71,82.41 -1.19,3.14 -2.15,6.34 -3.84,11.34 -15.8,-5.22 -30.87,-10.21 -45.95,-15.17 -22.64,-7.51 -43.2,-2.78 -58.18,14.97 -15.56,18.44 -23.33,40 -9.78,63.83 7.97,14.05 15.04,28.66 23.93,42.08 16.77,25.23 16.7,29.69 -7.07,50.05 -17.95,15.34 -27.11,34.14 -24.19,58.01 0.45,3.89 0.78,8.86 3.24,11.33 14.84,15.11 11.23,31.21 3.76,47.84 -0.23,0.49 -0.23,1.12 -0.4,1.68 -15.47,51.74 -11.73,62.41 32.4,92.72 37.72,25.89 38.67,27.31 4.29,57.42 -21.05,18.48 -37.64,38.25 -43.27,66.25 -0.72,3.57 -4.55,8.09 -7.92,9.24 -16.27,5.5 -33.56,8.44 -49.16,15.25 -16.72,7.3 -22.52,-4.17 -31.33,-13.09 -8.96,-9.02 -4.93,-15.57 1.05,-23.93 13.49,-18.84 4.79,-47.77 -17.19,-53.09 -8.22,-2.02 -21.59,1.85 -27.26,7.96 -9.66,10.41 -10.88,24.96 -2.62,38.38 0.86,1.39 3.04,2.02 3.81,3.44 3.29,6.02 6.8,12.03 8.95,18.51 0.36,1.09 -6.87,6.85 -8.3,6.09 -6.67,-3.54 -15.67,-7.31 -18.21,-13.33 -10.94,-25.91 -27.77,-46.14 -50.64,-62.18 -9.58,-6.74 -17.39,-7.44 -26.28,0.37 -7.8,6.84 -16.06,13.22 -24.39,19.47 -20.96,15.77 -52.96,11.3 -64.6,-12.63 -26.51,-54.31 -48.72,-110.74 -75.69,-164.81 -21.26,-42.58 -14.68,-86.31 -14.19,-130.54 1.17,-107.36 1.03,-214.79 1.36,-322.19 0.07,-30.05 2.19,-60.33 -0.93,-90.04 -2.24,-21.75 -8.29,-44.5 -18.44,-63.8 -17.62,-33.51 -63.26,-41.15 -87.96,-0.53 -24.19,39.8 -34.15,42.28 -74.77,22.41 -14.21,17.39 -29.61,33.79 -41.88,52.29 -5.92,8.93 -7.67,21.69 -8.3,32.87 -1.19,20.88 -8.59,35.43 -30.38,40.39 -4.33,0.99 -8.92,3.27 -12.09,6.34 -21.52,20.73 -43.67,40.93 -63.51,63.18 -10.17,11.43 -20.12,18.07 -35.36,16.55 -13.19,-1.35 -23.6,2.22 -34.18,11.94 -6.71,6.21 -20.63,8.99 -29.98,7.01 -18.94,-4.04 -37.29,-11.61 -55.31,-19.08 -13.74,-5.69 -24.19,-5.98 -31.17,9.35 -10.97,24.01 -27.16,43.51 -48.75,59.21 -9.03,6.54 -16.77,16.23 -22.28,26.08 -17.23,30.54 -9.85,57.18 21.88,85.09 21.29,18.7 21.22,18.63 0.57,37.54 -23.02,21.06 -46.19,41.95 -68.76,63.44 -29.68,28.19 -29.36,66.7 1.78,94.31 13.56,12.06 29.72,21.15 46.68,32.95 -14.48,26.05 -34.05,49.35 -65.98,55.44 -17.36,3.3 -21.25,13.35 -27.01,26.34 -4.63,10.41 -11.57,21.45 -20.59,27.94 -13.55,9.74 -23.9,5.54 -29.65,-10.29 -4.26,-11.76 -4.67,-24.95 -8.96,-36.72 -3.93,-10.71 -8.6,-23.07 -16.89,-29.86 -21.75,-17.71 -45.42,-33.21 -69.02,-48.51 -4.69,-3.05 -14.65,-4.07 -18.61,-1.17 -24.3,17.83 -53.16,16.66 -80.53,22.25 -10.44,2.12 -20.42,8.33 -29.64,14.21 -19.24,12.27 -36.73,28.86 -62.68,20.5 -2.14,-0.69 -4.56,-0.62 -6.88,-0.76 -15.23,-0.79 -35.26,-8.03 -44.78,-1.03 -22.38,16.5 -40.36,39.27 -58.45,60.89 -3.13,3.77 0.04,15.6 3.61,21.79 26.18,45.52 65.09,70.01 118.57,70.96 44.4,0.83 88.75,2.79 133.05,5.33 12.95,0.73 26.84,2.91 38.31,8.5 24.62,11.96 47.26,28.19 72.09,39.66 21.09,9.72 43.63,18.02 66.38,21.81 21.92,3.65 44.95,0.21 67.46,0.9 10.11,0.33 20.17,3.1 30.28,4.72 3.87,0.6 8.53,2.79 11.53,1.39 36.56,-16.86 69.79,-4.53 102.81,10.78 12.53,5.79 24.86,13.75 35.3,-4.33 1.49,-2.58 12.56,-1 18.62,0.69 18.7,5.13 37.28,10.81 55.59,17.09 15.6,5.36 32.17,9.69 45.85,18.35 29.25,18.58 59.7,20.72 92.46,14.15 6.54,-1.32 14.63,0.82 21.02,3.63 22.17,9.69 44,20.2 65.78,30.75 12.56,6.05 21.12,2.44 26.51,-9.82 4.85,-11.08 9.95,-22.05 14.08,-33.39 9.36,-25.65 26.77,-40.82 54.12,-40.26 22.83,0.49 45.51,6.08 68.35,8.69 9.62,1.13 19.84,2.15 29.08,0.13 57.16,-12.52 114.74,-6.9 172.36,-7.44 43.46,-0.39 74.21,24.83 110.08,40.07 4.06,1.75 8.56,4.96 10.51,8.7 12.29,23.53 34.27,25.74 56.58,25.31 104.46,-1.91 208.98,-2.74 313.23,-8.35 17.96,-0.97 36.44,-5.26 55.02,-3.42 7.63,0.76 15.13,2.72 22.77,3.12 9.45,0.49 19.07,0.75 28.46,-0.46 7.27,-0.93 14.15,-5.95 21.36,-6.32 38.86,-1.95 77.8,-3.5 116.71,-4.26 24.99,-0.54 50.15,2.38 74.97,0.43 31.34,-2.48 52.1,-20.37 65.02,-49.72 7.74,-17.48 19.27,-33.85 31.6,-48.63 9.22,-11.07 18.31,-7.07 20.96,7.41 0.99,5.62 1.15,11.5 0.96,17.22 -1.45,38.91 47.63,75.89 86.5,66.78 23.41,-5.5 47.54,-8.33 71.47,-10.58 25.22,-2.36 49.88,-2.25 69.88,-22.98 12.83,-13.29 29.68,-17.39 48.82,-6.08 14.12,8.33 30.94,12.42 46.94,17.09 4.5,1.28 12.13,-0.53 15.3,-3.83 7.08,-7.31 12.53,-16.3 18.15,-24.93 13.98,-21.48 27.67,-43.17 41.45,-64.79 1.56,0.37 3.11,0.69 4.66,1.06 0,10.91 1.19,21.94 -0.2,32.65 -6.18,47.04 -5.25,61.92 53.32,71.21 21.13,3.37 43.34,0.79 64.95,-0.43 18.98,-1.05 33.79,3.93 48.5,17.26 10.67,9.65 27.24,17.74 41.22,17.81 38.47,0.17 76.95,-4.72 115.5,-6.51 8.16,-0.4 20.12,1.19 24.16,6.55 10.67,14.14 24.22,22.37 39.9,28.69 12.75,5.15 15.53,12.13 7.66,25.31 -11.23,18.85 -24.95,26.48 -47.69,26.46 -1026.77,-0.57 -2053.53,-0.47 -3080.26,-0.47 -8.67,0 -17.29,0 -28.9,0 0,-6.84 0,-12.86 0,-18.91 0,-1214.55 0,-2429.07 0.04,-3643.63 0,-26.21 0.06,-26.31 27.5,-26.24 1089.67,2.94 2179.33,5.88 3269.04,8.82 124.22,0.34 248.45,0.8 372.66,0.6 14.41,-0.03 20,2.88 20,18.91 -0.46,522.91 -0.39,1045.84 -0.53,1568.74 0,6.28 -0.06,12.89 -1.88,18.78 -4.73,15.06 -13.48,16.95 -29.06,14.74 -26.28,-3.74 -33.28,-19.17 -34.94,-42.87 -0.78,-11.18 -6.34,-23.97 -13.85,-32.43 -38.87,-43.9 -81.02,-83.8 -138.17,-103.83 -33.02,-11.6 -48.62,-33.45 -48.39,-70.73 0.26,-37 -11.73,-69.75 -42.18,-97.56 -72.78,-66.53 -143.03,-136.02 -212.08,-206.49 -29.25,-29.85 -60.79,-56 -92.79,-82.54 -28.3,-23.5 -49.48,-55.76 -72.78,-84.99 -5.03,-6.3 -7.88,-16.06 -8.01,-24.26 -0.39,-22.28 -11.96,-39.07 -23.43,-56.53 -35.87,-54.63 -84.03,-98.06 -130.08,-143.42 -5.25,-5.19 -11.7,-9.52 -18.28,-12.89 -42.6,-21.72 -71.33,-55.47 -95.33,-96.75 -14.77,-25.49 -40.35,-44.96 -62.47,-65.65 -4.69,-4.4 -15.7,-1.23 -23.21,-3.54 -12.68,-3.94 -27.96,-6.28 -36.78,-14.84 -35.61,-34.51 -68.3,-72.1 -104.03,-106.47 -11.83,-11.34 -29.75,-16.26 -44.69,-24.46 -28.07,-15.38 -58.47,-27.84 -83.37,-47.27 -29.35,-22.91 -53.51,-52.33 -80.58,-78.24 -44.4,-42.51 -90.65,-82.05 -151.3,-100.72 -20.16,-6.22 -36.13,-4.1 -50.37,10.87 -21.53,22.54 -43.38,44.79 -64.04,68.09 -27.56,31.11 -56.39,59.57 -99.92,66.71 -3.77,0.62 -7.94,5.92 -9.78,9.99 -9.32,20.32 -17.29,41.28 -27.04,61.34 -8.27,17.03 -6.91,29.19 7.96,41.09 8.57,6.85 17.03,14.51 26.85,18.84 15.49,6.81 17.85,18.19 18.2,33.23 1,40.25 3.41,80.51 5.3,120.75 0.06,1.71 0.17,3.63 0.92,5.09 19.04,36.65 36.56,74.21 58.01,109.37 9.89,16.17 26.31,26.98 49.79,25.29 8.76,-0.59 23.2,13.52 27.24,23.93 13.84,35.87 29.15,69.62 57.64,97.19 8.4,8.1 12.83,26.14 10.78,38.28 -8.9,52.96 25.42,83.99 55.1,118.07 8.96,10.31 18.08,21.22 23.97,33.36 8.53,17.58 -7.31,35.99 -27.08,33.38 -6.24,-0.86 -13.52,-3.77 -18.57,-1.62 -6.71,2.84 -13.99,8.69 -16.92,15.14 -3.94,8.59 -3.12,19.2 -5.76,28.56 -5.75,20.36 -16.96,33.95 -40.49,36.16 -9.85,0.96 -19.63,8.46 -28.3,14.61 -14.51,10.35 -27.63,22.67 -42.21,32.89 -11.54,8.1 -23.14,6.65 -31.47,-5.81 -7.01,-10.52 -14.02,-21.13 -19.9,-32.3 -5.22,-9.89 -10.87,-10.15 -19.24,-4.17 -20.82,14.94 -25.35,34.35 -9.06,54.91 19.01,23.93 17.63,47.33 4.34,72.32 -5.99,11.21 -11.31,22.81 -17.99,33.56 -10.07,16.29 -8.66,31.36 1.72,46.83 11.93,17.85 6.45,45.26 -10.87,57.92 -8.66,6.34 -13.49,1.02 -15.41,-6.19 -4.13,-15.53 -10.31,-31.53 -9.61,-47.1 2.47,-55.87 -7.48,-110.24 -16.4,-164.81 -0.86,-5.23 -4.03,-10.94 -7.87,-14.61 -7.9,-7.54 -16,-16.07 -25.71,-20.23 -23.41,-10.12 -34.25,-29.62 -44.13,-50.91 -3.04,-6.55 -8.23,-12.2 -12.73,-18.01 -16.1,-20.8 -32.99,-40.99 -48.16,-62.41 -5.82,-8.23 -10.32,-11.7 -19.3,-6.38 -6.95,4.13 -14.26,7.7 -20.93,12.23 -17.02,11.6 -34.38,14.94 -53.58,5.12 -4.03,-2.05 -9.68,-0.89 -14.61,-1.19 -0.07,4.9 -0.96,9.98 0,14.68 1.19,6.18 3.17,12.39 5.98,17.98 15.67,31.41 20.59,63.54 14.58,98.87 -5.65,33.15 23.83,73.28 56.79,82.64 13.82,3.9 28.16,6.22 42.38,8.56 10.93,1.75 15.47,6.88 11.66,17.75 -6.14,17.52 1.29,32.69 5.13,49.58 6.47,28.8 6.28,59.41 6.15,89.25 -0.11,25.32 -4.14,50.58 -6.38,75.9 -3.12,35.33 24.25,55.2 56.03,40.79 13.01,-5.92 26.04,-11.73 42.87,-19.31z"/>
   <path class="fil2" d="M2704.73 1785.5c-30.31,-26.91 -56.9,-50.51 -83.04,-73.75 -13.48,10.75 -23.5,20.66 -35.31,27.6 -20.16,11.87 -41.02,22.91 -62.4,32.37 -23.21,10.28 -29.19,19.69 -28.03,52.82 0.62,18.41 8.23,26.8 30.41,33.94 3.18,1.03 6.08,2.82 10.67,5 -8.85,22.91 -23.93,39.66 -43.1,52.88 -3.1,2.19 -9.65,2.32 -13.18,0.54 -21.03,-10.65 -43.14,-20.1 -42.95,-50.09 0.14,-20.82 -12.06,-35.37 -27.33,-49.54 -19.57,-18.18 -40.13,-27.77 -66.78,-24.89 -13.42,1.45 -11.9,-9.3 -10.04,-16.57 6.74,-26.54 22.28,-47.13 47.43,-58.27 11.27,-4.99 24.43,-7.54 36.82,-7.83 42.15,-1.06 84.33,-1.13 126.48,-0.57 25.34,0.36 47.95,-6.81 68.03,-21.45 16.75,-12.23 32.19,-26.28 48.55,-39.08 13.48,-10.54 16.92,-25.28 9.72,-38.57 -8.16,-15.07 -19.47,-29.78 -32.79,-40.42 -19.51,-15.64 -41.99,-27.51 -66.41,-43.01 -14.18,12.63 -32,26.35 -47.11,42.61 -10.47,11.3 -20.49,16.06 -35.96,14.44 -29.25,-3.01 -58.7,-4.13 -88.1,-5.75 -31.36,-1.69 -54.89,-17.68 -66.96,-44.95 -15.28,-34.48 -27.18,-70.68 -37.78,-106.9 -6.91,-23.64 -10.41,-48.57 -12.76,-73.15 -2.95,-30.72 0,-60.2 29.65,-79.77 8.53,-5.61 14.91,-6.71 23.2,-0.76 6.08,4.33 13.29,7.05 19.54,11.14 9.52,6.19 17.32,3.74 28.19,1.02 18.19,-4.49 38.71,-3.73 57.29,-0.22 7.04,1.35 14.71,15.89 16.43,25.45 3.93,22.11 -0.13,44.42 -13.52,62.8 -15.93,21.92 -15.07,43.5 -0.99,64.2 10.94,16.1 9.65,29.02 -1.03,43.99 -9.91,13.82 -14.71,28.63 -0.03,43.4 8.99,9.03 17.75,12 28.92,4.04 17.39,-12.37 34.41,-25.49 52.86,-36.13 10.48,-6.05 23.5,-10.91 35.3,-10.75 29.82,0.41 59.6,3.87 89.38,6.32 27.11,2.25 51.11,-6.71 73.72,-20.43 19.93,-12.07 26.34,-12.4 41.95,5.09 22.17,24.82 41.61,52.19 64.58,76.22 16.53,17.29 36.93,30.92 55.54,46.25 12.4,10.22 26.24,19.2 36.63,31.17 13.01,15.01 11.36,23.8 -2.98,37.19 -22.29,20.86 -27.96,45.18 -17.66,73.88 2.06,5.68 1.99,12.43 1.76,18.61 -0.89,23.07 -1.16,46.28 -3.77,69.18 -2.02,17.56 4.89,28.2 20.43,33.06 14.68,4.63 16.52,13.75 13.52,26.78 -1.39,6.04 -1.49,12.55 -1.19,18.76 1.95,36.8 5.06,73.56 6.05,110.38 0.63,22.9 -9.13,29.62 -31.74,25.28 -32.62,-6.24 -53.65,11.71 -51.4,44.7 1.88,27.6 5.26,55.1 6.94,82.7 0.57,9.62 -1.32,19.57 -3.27,29.12 -3.76,18.15 -14.31,26.41 -32.69,26.85 -34.87,0.82 -64.19,31.39 -55.84,65.71 14.75,60.56 20.1,124.88 57.46,177.91 13.46,19.13 -1.09,63.72 -23.93,72.94 -13.22,5.32 -23.77,1.36 -29.06,-10.37 -4.79,-10.71 -7.3,-23.04 -8.19,-34.85 -3.38,-45.42 -5.59,-90.9 -8.57,-136.35 -0.39,-6.21 -1.19,-13.16 -4.22,-18.31 -13.99,-23.6 -10.49,-49.38 -8.93,-74.41 0.53,-8.39 8.78,-17.09 15.14,-24.16 29.08,-32.39 37.78,-70.51 33.06,-112.58 -2.75,-24.17 -29.79,-53.76 -53.59,-57.39 -4.89,-0.76 -12.07,4.26 -16.14,8.56 -18.17,19.24 -34.4,40.46 -53.61,58.54 -16.99,15.97 -37.52,9.92 -47.17,-11.53 -3.07,-6.79 -5.26,-14.08 -6.91,-21.36 -8.59,-38.28 -31.63,-66.18 -63.2,-87.66 -20.1,-13.69 -24.53,-34.64 -24.59,-55.97 -0.07,-21.35 14.54,-34.27 33.48,-42.04 27.21,-11.17 56.63,-12.43 78.51,13.15 27.21,31.81 75.59,49.59 110.57,30.18 12.06,-6.7 24.93,-15.96 31.83,-27.4 36.59,-60.62 45.12,-125.97 28.37,-194.8 -4.37,-17.87 -7.14,-36.19 -11.21,-54.17 -1.49,-6.65 -3.77,-13.39 -7.14,-19.24 -9.72,-16.92 -15.54,-18.02 -33.58,-10.41 -36.24,15.21 -53.36,42.17 -52.3,81.28 0.4,14.64 0.07,29.32 0.07,47.8z"/>
   <path class="fil2" d="M2118.71 2516.66c-27.67,0 -52.62,-2.6 -76.76,0.67 -31.73,4.3 -38.41,21.59 -23.33,50.61 1.88,3.6 3.6,7.3 5.95,10.57 17.52,24.37 22.2,50.98 16.53,80.46 -4.2,21.82 4.65,31.14 26.74,31.64 6.94,0.13 13.88,0.16 20.79,0.26 30.28,0.33 38.74,5.13 42.21,35.5 2.41,21.12 -0.49,43.6 -4.96,64.66 -6.71,31.83 -10.25,64.58 -27.34,94.04 -4.3,7.37 0.14,23.17 5.56,32.07 15.13,24.88 18.44,51 18.05,79.49 -1.66,113.15 -1.36,226.36 -2.71,339.52 -0.4,33.02 -1.62,65.64 9.31,97.57 2.19,6.38 1.53,15.31 -1.22,21.56 -9.75,22.27 -55.49,46.47 -80.02,42.57 -5.52,-0.9 -11.87,-4.93 -15.28,-9.45 -6.51,-8.67 -13.48,-18.12 -16.25,-28.34 -7.64,-28.22 -26.42,-48.42 -46.35,-67.49 -35.24,-33.66 -52.33,-74.14 -56.29,-122.64 -1.66,-20.26 -11.28,-40.99 -21.59,-59.07 -8.79,-15.43 -14.68,-29.88 -11.27,-47.2 6.35,-32.3 -4.83,-58.5 -25.75,-82.58 -10.05,-11.6 -19.21,-24.82 -25.36,-38.83 -8.83,-20 3.01,-34.35 24.56,-32.63 1.12,0.1 2.29,0.26 3.44,0.4 52.96,6.11 81.15,-13.26 90.28,-66.74 8.33,-48.75 10.08,-98.04 -14.25,-143.82 -13.42,-25.23 -12.9,-48.4 -3.08,-75.8 15.97,-44.52 14.15,-90.6 -6.31,-134.5 -8.79,-18.91 -5.22,-27.87 14.97,-32.99 51.47,-12.99 42.51,-13.46 37.39,-55.61 -3.53,-29.21 2.48,-53.94 20.23,-77.7 25.89,-34.64 50.11,-70.58 73.84,-106.74 18.75,-28.59 27.61,-60.39 27.84,-95 0.13,-18.91 0.56,-38.94 6.8,-56.33 5.73,-15.84 19.02,-29.19 30.05,-42.74 2.36,-2.91 10.55,-4.1 13.98,-2.25 3.05,1.65 4.63,8.66 4.5,13.23 -2.14,66.9 -3.7,133.84 -7.63,200.61 -1.39,23.14 -5.89,47.17 -14.51,68.52 -10.55,26.02 -15.11,51.64 -12.93,79.17 0.93,11.34 0.17,22.8 0.17,35.33z"/>
   <path class="fil2" d="M2184.65 1816.68c29.45,28.76 49.71,57.02 44.29,97.51 -2.35,17.32 -4.1,33.98 -19.44,46.31 -4.99,4.03 -5.79,13.23 -8.66,19.97 -5.26,12.26 -11.07,23.57 -28.03,18.01 -9.52,-3.14 -25.42,-3.14 -27.73,-8.89 -6.71,-16.56 -13.66,-36.52 -10.15,-52.99 5.71,-27.17 19.27,-52.71 30.11,-78.7 5.42,-13.06 12.1,-25.59 19.61,-41.22z"/>
   <path class="fil2" d="M2110.42 1805.82c-6.49,-17.69 -13.63,-34.95 -19.08,-52.69 -6.35,-20.76 -13.32,-41.68 3.37,-62.01 3.51,-4.3 2.45,-13.2 1.92,-19.84 -0.73,-9.12 -5.16,-18.44 -4,-27.14 1.56,-11.7 4.13,-29.72 11.37,-32.69 10.44,-4.33 27.27,-0.82 38.01,5.29 11.38,6.44 19.14,19.53 27.84,30.31 6.04,7.48 6.17,14.12 -4.39,19.08 -22.02,10.34 -29.06,29.94 -29.86,52.53 -0.6,17.85 0.04,35.76 -0.82,53.61 -0.7,14.37 -5.06,27.14 -24.36,33.55z"/>
   <path class="fil1" d="M1817 975.21c-10.41,-4.86 -18.04,-8.76 -25.94,-12.03 -30.29,-12.46 -45.16,-34.31 -42.78,-67.57 0.66,-9.15 -0.1,-18.48 -0.99,-27.67 -1.82,-19.1 -8.26,-35.46 -25.62,-46.6 -18.37,-11.81 -26.64,-30.05 -26.83,-51.47 -0.24,-22.31 8.79,-30.88 30.86,-31.31 4.56,-0.06 9.13,-0.52 16.74,-0.99 2.47,-21.78 5.52,-43.47 7.2,-65.22 1.72,-22.64 13.88,-37.19 36.4,-41.48 20.38,-3.93 40.75,-7.9 61.04,-12.2 30.72,-6.45 52.16,11.57 51.04,42.51 -1.06,29.39 -1.69,58.84 -1.78,88.26 -0.04,7.31 2.01,14.84 4.39,21.85 5.09,15 13.96,22.14 31.54,17.68 14.94,-3.8 30.87,-3.77 46.38,-5.28 32.36,-3.14 55.56,11.4 72.32,37.95 17.09,27.07 25.85,56.95 24.95,88.71 -0.85,30.15 5.69,58.38 16.51,85.91 3.33,8.5 7.79,16.93 13.48,23.97 11.66,14.31 26.21,13.49 37.45,-1.33 9.06,-11.9 17.72,-24.15 26.57,-36.26 6.92,-9.45 14.26,-9.09 23.58,-2.58 20.56,14.39 27.76,30.65 20.13,55.34 -7.87,25.36 -24.63,44.23 -48.9,55.27 -30.24,13.75 -62.4,22.87 -86.53,48.66 -14.25,15.2 -49.72,-3.31 -52.36,-28.03 -3.61,-33.85 -19.4,-62.09 -33.49,-91.84 -11.7,-24.69 -19.63,-51.69 -25.68,-78.47 -8.96,-39.63 -39.83,-60.82 -66.71,-85.51 -8.36,-7.7 -16.76,-2.28 -21.58,5.99 -13.98,23.8 -27.53,47.82 -40.75,72.05 -7.31,13.42 -13.63,27.41 -20.64,41.69z"/>
   <path class="fil1" d="M1466.8 2386.33c14.78,-10.09 26.27,-18.85 38.6,-26.18 40,-23.94 80.46,-33.46 123.57,-5.98 12.89,8.22 28.88,11.4 42.94,18.01 29.78,14.08 48.79,36.26 50.17,70.7 0.1,2.32 -0.06,4.7 0.4,6.91 5.15,25.26 4.5,46.21 -25.58,57.55 -19.84,7.48 -37.16,21.46 -55.6,32.49 -8.7,5.2 -15.17,2.68 -20.27,-5.62 -5.45,-8.82 -10.97,-17.64 -16.86,-26.18 -10.41,-15.06 -25.32,-19.8 -40.46,-9.98 -17.58,11.47 -34.9,24.1 -49.74,38.81 -18.58,18.42 -68.16,27.07 -89.95,11.84 -5.62,-3.91 -8.56,-11.84 -12.26,-18.19 -14.45,-24.75 -28.63,-49.68 -43.07,-74.43 -17.99,-30.72 -36.46,-61.12 -54.08,-92.06 -12.5,-22.02 -24.03,-44.6 -35.74,-67.08 -13.55,-25.94 -28.06,-51.53 -39.86,-78.27 -13.62,-30.94 -0.13,-50.51 33.39,-51.8 48.42,-1.88 48.75,-2.01 68.42,42.34 29.92,67.44 76.59,122.57 125.98,177.12z"/>
   <path class="fil1" d="M1701.65 1899.53c-3.51,21.59 -6.68,51.31 -13.48,80.16 -5.95,25.29 -23.94,39.87 -50.61,42.54 -18.35,1.86 -36.67,4.04 -54.91,6.36 -11.4,1.45 -19.5,-3.14 -23.47,-13.35 -16.62,-43.14 -29.49,-86.48 -3.7,-130.94 3.44,-5.95 6.94,-12.16 8.65,-18.74 3.08,-11.9 2.29,-22.15 -11.86,-28.23 -17.12,-7.31 -27.76,-20.56 -33.55,-39.17 -8.59,-27.6 -29.15,-46.45 -52.66,-62.02 -19.63,-12.99 -32.85,-30.6 -38.31,-53.41 -5.19,-21.78 -4.19,-42.75 14.09,-58.97 19.3,-17.12 41.91,-16.53 65.15,-10.82 8.85,2.19 17.48,6.16 26.44,7.18 35.11,4 58.67,24.99 78.04,51.97 32.56,45.28 67.77,89.47 80.83,145.2 5.58,23.91 5.78,49.03 9.35,82.24z"/>
   <path class="fil1" d="M1711.67 1666.39c0,-2.32 -0.27,-4.66 0.03,-6.91 4.4,-34.08 -1.92,-65.98 -16.83,-96.92 -5.35,-11.17 -5.88,-24.56 -9.71,-36.59 -9.95,-31.17 -19.28,-62.6 -31.24,-93.02 -7.04,-17.81 -5.78,-32.06 6.21,-46.34 38.64,-46.04 49.06,-46.97 93.88,-7.83 11.74,10.25 23.97,19.96 35.34,30.61 35.43,33.22 43.07,75.73 40.95,121.94 -1.48,32.16 -0.49,64.39 -1.55,96.59 -1.16,34.47 0,69.54 -6.38,103.09 -3.97,20.8 -19.1,39.86 -31.13,58.51 -7.38,11.44 -16.04,10.91 -28.17,0.89 -39.66,-32.69 -65.91,-69.52 -51.4,-124.02z"/>
   <path class="fil1" d="M1563.04 1159.65c0,-2.88 -0.04,-5.79 0,-8.67 0.82,-42.93 0.89,-42.63 42.41,-51.82 6.84,-1.52 12.92,-6.82 19.17,-10.65 9.28,-5.69 17.85,-13.09 27.84,-16.76 4.52,-1.65 14.74,2.22 17.25,6.51 34.94,60.36 47.57,126.54 49.05,195.42 0.1,4.6 -0.2,9.26 -0.76,13.82 -2.34,18.81 -6.02,39.44 -25.85,45.42 -21.55,6.51 -44.43,5.23 -63.6,-11.5 -29.92,-26.08 -45.84,-60.62 -57.29,-97.05 -6.47,-20.56 -7.59,-42.8 -11.1,-64.3l2.88 -0.42z"/>
   <path class="fil1" d="M619.19 3048.35c43.83,40.24 40.72,78.91 9.32,109.19 -26.91,25.99 -57.02,38.51 -93.62,35.34 -25.31,-2.21 -38.3,-17.39 -33.48,-42.35 3.51,-18.25 11.04,-36.13 19.44,-52.89 6.77,-13.55 20.2,-21.98 36,-19 23.63,4.43 39.9,-5.06 53.42,-22.94 2.27,-3.01 5.97,-4.97 8.92,-7.35z"/>
   <path class="fil1" d="M617.42 3290.67c-4.76,5.26 -11.8,14.61 -20.39,22.25 -20.86,18.58 -26.22,17.74 -43.25,-4.46 -2.44,-3.21 -4.59,-6.62 -6.77,-10.02 -17.22,-26.91 -10.54,-46.11 19.84,-57.09 2.18,-0.76 4.46,-1.58 6.7,-1.61 11.84,-0.11 43.54,32.52 43.87,50.93z"/>
  </g>
 </g>
</svg>
